<?xml version="1.0" encoding="UTF-8" standalone="no"?>
<!-- Created with Inkscape (http://www.inkscape.org/) -->

<svg
   width="408.95709mm"
   height="83.868126mm"
   viewBox="0 0 408.95709 83.868126"
   version="1.1"
   id="svg5"
   inkscape:version="1.1.2 (b8e25be833, 2022-02-05)"
   sodipodi:docname="kasulampualogo.svg"
   xmlns:inkscape="http://www.inkscape.org/namespaces/inkscape"
   xmlns:sodipodi="http://sodipodi.sourceforge.net/DTD/sodipodi-0.dtd"
   xmlns="http://www.w3.org/2000/svg"
   xmlns:svg="http://www.w3.org/2000/svg">
  <sodipodi:namedview
     id="namedview7"
     pagecolor="#ffffff"
     bordercolor="#666666"
     borderopacity="1.0"
     inkscape:pageshadow="2"
     inkscape:pageopacity="0.0"
     inkscape:pagecheckerboard="0"
     inkscape:document-units="mm"
     showgrid="false"
     fit-margin-top="0"
     fit-margin-left="0"
     fit-margin-right="0"
     fit-margin-bottom="0"
     inkscape:zoom="0.45291836"
     inkscape:cx="712.04886"
     inkscape:cy="591.71812"
     inkscape:window-width="1920"
     inkscape:window-height="1009"
     inkscape:window-x="-8"
     inkscape:window-y="-8"
     inkscape:window-maximized="1"
     inkscape:current-layer="layer1" />
  <defs
     id="defs2" />
  <g
     inkscape:label="Layer 1"
     inkscape:groupmode="layer"
     id="layer1"
     transform="translate(217.49309,-61.752345)">
    <path
       id="path1019"
       style="fill:#227ad3;fill-opacity:1;stroke-width:1.6599;stroke-linecap:round"
       d="m -208.82788,61.774689 c -4.80228,0.0014 -8.66682,3.869328 -8.66521,8.67157 l 0.004,10.081419 c 1.97344,0.899077 4.70023,2.964203 6.3199,0.176688 3.24607,-3.232475 11.24376,-1.119934 12.20168,-6.09605 -1.4892,-3.761545 1.39715,-6.61784 4.6371,-9.161553 2.21228,-0.944365 4.67632,-1.750444 7.10318,-1.718441 -1.69325,2.563089 0.45406,2.946521 0.0286,5.277848 -2.28039,0.233344 2.7103,3.068611 2.7235,4.299141 -4.43446,0.08582 -0.34439,0.896977 0.92369,2.286262 3.06021,1.048704 4.69485,4.872085 0.0458,3.095266 1.45127,1.313407 -0.75234,4.999243 -1.94427,6.282103 2.0689,0.700424 -0.74224,1.487715 -2.2935,3.870252 -2.50586,1.928616 0.29262,3.107376 -0.59756,4.957315 -0.14682,2.977138 -3.02305,6.891731 -6.51082,7.192941 0.35442,-3.715166 -1.3117,-3.262058 -4.00485,-2.224455 -2.276,-3.227548 -4.17514,1.169884 -7.28337,0.509345 -0.22978,-2.876048 -2.88967,-0.23802 -4.71003,-0.851381 -5.25217,1.240217 -1.65365,-6.452002 -4.82942,-7.511794 -0.79335,2.723789 -1.29935,0.653694 -1.80603,-0.282762 l 9.5e-4,2.882417 c 0.001,4.802242 3.86885,8.66684 8.67112,8.66519 l 23.06515,-0.007 c 4.80226,-0.001 8.66683,-3.868855 8.66519,-8.671083 l -0.007,-23.064688 c -0.001,-4.802256 -3.86885,-8.667314 -8.67108,-8.665676 z"
       inkscape:export-filename="D:\0-Ryan WJ\7400\2023\0-Panitia\.konreg-kasulampua\.output-logo-kasulampua\color-h-text-transp-w.png"
       inkscape:export-xdpi="300.069"
       inkscape:export-ydpi="300.069" />
    <path
       id="path1021"
       style="fill:#f98110;fill-opacity:1;stroke-width:1.6599;stroke-linecap:round"
       d="m -165.24476,61.760115 c -4.87834,0.0014 -8.80434,3.930324 -8.80269,8.808667 l 0.007,22.790088 c 9.5e-4,4.165347 2.86667,7.63432 6.74069,8.55893 -0.5635,-4.056236 4.32051,-12.108663 -2.67816,-11.071425 -0.33674,-3.074378 -1.10062,-5.391117 3.45461,-5.183308 0.029,-4.350716 -0.41894,-8.485922 3.17828,-11.727092 0.006,-4.040374 2.91213,-7.664752 6.10545,-8.752347 3.93655,-2.366017 9.54183,3.073749 14.84125,1.517563 1.50743,0.716971 4.24634,-0.976033 6.44401,-2.096835 -1.60826,-1.755316 -3.9218,-2.852892 -6.50111,-2.85201 z m 31.12151,5.92968 c -4.75897,4.07876 -11.60241,1.071243 -17.51175,1.378883 -5.37339,-1.802887 -11.99055,1.068597 -8.40095,6.907826 0.91713,2.56943 4.35712,4.711539 6.19279,0.778891 4.88102,1.039842 7.59701,-3.065083 10.7545,-0.0532 -3.15956,0.583724 -7.558,5.37254 -11.9366,5.306224 2.20271,3.331481 6.25487,6.394058 3.53109,9.568464 0.5432,1.587867 6.81168,5.884908 0.6842,5.509945 -1.86542,3.458752 -6.56426,0.921659 -3.78614,-2.178381 -5.21856,-1.381039 -1.70112,-5.518584 -3.19333,-8.196146 -4.80999,0.191849 -3.65857,6.84746 -3.35076,10.449467 -1.61293,1.167588 -0.88702,3.530292 -1.153,4.998822 l 12.27323,-0.004 c -0.81247,-1.14012 0.7613,-3.750709 1.58645,-3.754825 0.41,-0.0014 0.63503,0.639316 0.2895,2.424995 0.0452,0.37551 0.15688,0.91447 0.11661,1.32916 l 0.56766,-2.2e-4 c 0.32641,-2.09262 1.37311,-5.010434 1.78236,-5.032091 0.17471,-0.0098 0.23264,0.509681 0.0672,1.847713 -0.0228,0.899329 0.49902,2.147878 0.45354,3.183578 l 2.71571,-8.8e-4 c 0.0787,2.5e-4 0.15649,-0.004 0.23473,-0.006 -0.069,-0.20949 0.004,-0.28183 0.11746,-0.27949 0.14989,0.004 0.36377,0.13888 0.38694,0.25258 4.52941,-0.37495 8.06508,-4.146758 8.06352,-8.775868 l -0.007,-22.790087 c -1e-4,-1.004592 -0.16986,-1.967381 -0.47726,-2.86524 z m -10.58269,5.072978 c 0.13986,0.0014 0.28163,0.624309 -0.10919,0.199788 0.0269,-0.147863 0.0682,-0.200726 0.10919,-0.199788 z m -5.03046,0.109197 c 0.23389,0.0014 0.18331,0.53152 -0.20652,0.100656 0.0837,-0.07378 0.15244,-0.101356 0.20652,-0.100656 z m -0.0196,1.116812 c 0.14112,-0.0112 0.29045,0.628578 -0.10443,0.199773 0.0259,-0.142725 0.065,-0.196974 0.10443,-0.199773 z m 7.63754,3.342469 c 0.9831,-9.52e-4 1.33575,0.519957 -0.6763,2.0098 l -0.40955,0.392826 -0.3533,0.05754 c -4.06842,-0.794851 -0.3133,-2.457616 1.43915,-2.460108 z m -7.88161,13.480686 c 0.19407,-9.52e-4 -0.53406,0.343688 -0.3309,0.07546 0.18221,-0.05474 0.28381,-0.07518 0.3309,-0.07546 z m 4.12489,3.61049 c 0.23659,-0.0112 0.29986,1.105137 -0.23026,0.341253 0.0843,-0.24635 0.16405,-0.337473 0.23026,-0.341253 z m 2.65571,6.450143 c 0.32152,0.001 0.28995,0.79254 -0.3863,0.28056 0.15623,-0.20739 0.28787,-0.28063 0.3863,-0.28056 z"
       inkscape:export-filename="D:\0-Ryan WJ\7400\2023\0-Panitia\.konreg-kasulampua\.output-logo-kasulampua\color-h-text-transp-w.png"
       inkscape:export-xdpi="300.069"
       inkscape:export-ydpi="300.069" />
    <path
       id="path1023"
       style="fill:#7dbd36;fill-opacity:1;stroke-width:1.6599;stroke-linecap:round"
       d="m -208.27841,105.219 c -5.1066,0.001 -9.21642,4.11384 -9.21468,9.22048 l 0.007,21.96632 c 10e-4,5.10658 4.11435,9.21639 9.22094,9.21467 l 19.67588,-0.007 c -0.26525,-1.73615 -0.0965,-2.35009 0.21008,-2.35471 0.49654,-0.008 1.33902,1.54075 1.23277,2.35422 l 0.84709,1.3e-4 c 4.43183,-0.001 8.11109,-3.09989 9.0054,-7.25649 -0.15904,0.0647 -0.43654,0.0512 -0.88992,-0.10121 -0.23844,-0.90339 -0.12319,-1.225 0.1036,-1.24126 0.004,-1.9e-4 0.01,-4e-5 0.014,-1.7e-4 l -2e-5,-9.5e-4 c 0.014,-2.5e-4 0.0277,-4.3e-4 0.0423,0.003 l 7.7e-4,9.5e-4 c 0.27995,0.0353 0.67197,0.4452 0.82794,0.80939 0.0722,-0.4671 0.11045,-0.94577 0.11031,-1.43372 l -0.007,-21.96675 c -0.001,-5.10662 -4.11432,-9.21591 -9.22094,-9.21418 z m 3.6504,0.31371 c 0.083,-10e-4 0.16689,0.007 0.25127,0.0231 0.0627,0.0112 0.12571,0.0284 0.1881,0.0486 l -2e-5,-4.9e-4 c 0.0375,0.0126 0.075,0.0266 0.11228,0.0412 1.48929,0.60104 2.68693,3.39675 -1.77811,3.23003 -0.27065,-2.4943 0.42402,-3.3342 1.22647,-3.34259 z m -3.64303,4.17592 c 0.0407,-7.7e-4 0.0806,0.001 0.11955,0.008 0.0469,0.006 0.0924,0.019 0.13664,0.0354 0.65967,0.24691 0.98951,1.57058 0.50062,4.50206 -5.71158,7.99218 7.83179,-7.95588 5.89034,1.68973 -7.67282,0.6673 6.57682,8.52934 -2.08757,5.07642 -10.08906,-2.76804 3.90121,12.16966 -1.47476,9.21975 -5.60087,-2.95629 -3.87086,-9.99847 -6.77179,-14.19593 0.36275,-3.30519 2.4248,-6.32114 3.68704,-6.33567 z m 10.24564,1.39519 c 0.0112,-6.4e-4 0.0232,-3.3e-4 0.0356,9.6e-4 0.007,9.5e-4 0.0143,8.5e-4 0.0209,0.004 l 2e-5,9.5e-4 c 0.007,0.001 0.0143,0.003 0.0208,0.007 0.212,0.0903 0.42334,0.54336 -0.21128,0.32323 -0.0112,-0.24226 0.0526,-0.33156 0.13384,-0.3383 z m 2.16068,5.49876 c 0.69273,-0.007 1.36562,0.0638 1.86091,0.22682 0.0731,0.0239 0.14225,0.0501 0.20705,0.0783 0.78062,0.3382 0.92821,0.97389 -0.43768,1.98786 -1.50759,-1.56204 -1.34359,0.77124 -2.65399,0.0909 -4.18083,-1.34464 -1.4505,-2.35931 1.02371,-2.38366 z m -17.10045,1.88466 c 0.007,-9.1e-4 0.0144,-8.8e-4 0.0209,1.7e-4 0.003,1e-5 0.004,9.5e-4 0.007,0.001 l 9.5e-4,-7.9e-4 c 0.001,0 0.003,0.004 0.007,0.003 0.14801,0.0753 -0.0249,0.85818 -0.26578,0.24116 0.1036,-0.16777 0.17838,-0.23745 0.2298,-0.246 z m 1.10463,2.77951 c 0.01,-4e-5 0.0197,9.4e-4 0.0298,0.001 0.0112,10e-4 0.0217,0.003 0.0326,0.007 v 4.9e-4 c 0.0112,0.003 0.0214,0.007 0.0321,0.0126 0.32046,0.14915 0.56075,0.98607 -0.41335,0.68684 0.0293,-0.52946 0.17109,-0.70903 0.31906,-0.70965 z m 9.12512,1.84269 c 0.026,-0.001 0.0497,10e-4 0.0714,0.007 0.004,3e-5 0.008,0.003 0.0126,0.003 0.0126,0.003 0.0251,0.008 0.0358,0.0148 l -4.9e-4,8.7e-4 c 0.22353,0.1183 0.12488,0.57572 -0.40625,0.0955 0.11256,-0.0846 0.20865,-0.11886 0.28621,-0.12166 z m 2.12694,0.71562 c 0.3847,0.008 0.83446,0.0874 1.26413,0.20127 0.14725,0.0391 0.29207,0.082 0.43113,0.12824 0.13902,0.0463 0.27215,0.0958 0.39612,0.14617 l 1e-5,4.9e-4 c 1.07448,0.43719 1.45606,0.97933 -1.08838,0.71427 -0.65142,-0.14865 -1.45042,0.0391 -1.98934,-0.47949 -0.11536,-0.54087 0.3451,-0.72413 0.98632,-0.71085 z m -12.17861,0.92365 c 0.0173,4.5e-4 0.035,0.003 0.0526,0.004 0.0216,0.004 0.043,0.01 0.0645,0.0155 0.0218,0.006 0.0435,0.0143 0.0657,0.0234 v -4.9e-4 c 0.6541,0.26911 1.27536,1.64335 -0.68692,0.8376 0.0197,-0.67468 0.24494,-0.89521 0.5042,-0.88176 z m 23.48132,0.52222 c 0.30207,-0.0126 1.06139,1.07657 -0.0388,0.57445 -0.12011,-0.42063 -0.0705,-0.56971 0.0388,-0.57445 z m -14.91604,0.0624 c 0.0112,1.7e-4 0.0206,9.5e-4 0.0297,0.003 0.23502,0.0665 -0.12446,1.03949 -0.40232,0.26987 0.17747,-0.19728 0.29723,-0.2713 0.37265,-0.27326 z m 3.28541,0.24578 c 0.0148,-2e-5 0.0305,9.6e-4 0.0466,0.004 0.0199,0.004 0.0412,0.01 0.0627,0.0161 0.0216,0.007 0.0441,0.0154 0.0672,0.0262 l -4.9e-4,4.9e-4 c 0.6911,0.31854 1.94363,2.14754 -0.12879,1.19413 -0.34294,-0.9221 -0.27138,-1.23973 -0.047,-1.24073 z m 6.39329,0.28505 c 0.15784,-9.6e-4 0.31665,0.004 0.47339,0.0153 1.75547,0.11928 3.24706,0.90741 0.0511,1.73886 l -1.1099,0.30558 -0.71829,0.10178 c -1.62601,-1.48674 -0.43026,-2.08428 1.02135,-2.15474 0.0934,-0.004 0.18772,-0.007 0.28233,-0.007 z m -18.77354,0.85442 c 0.0143,-1.2e-4 0.0287,7.3e-4 0.0427,0.003 0.0126,0.004 0.0253,0.007 0.0378,0.0112 l 5.1e-4,-8.5e-4 c 0.39078,0.14688 0.56496,1.35409 -0.67363,1.32892 0.11983,-1.00275 0.37496,-1.33991 0.59244,-1.34299 z m 29.13472,0.0945 v 4.9e-4 c 0.15765,-9.7e-4 0.31713,0.007 0.47387,0.0225 v -4.8e-4 c 1.46285,0.14939 2.6576,1.01398 -0.66804,1.9826 l -0.71689,-0.0756 c -1.31103,-1.32782 -0.38195,-1.87163 0.7541,-1.92478 0.0519,-10e-4 0.10444,-0.004 0.15698,-0.004 z m -26.8499,0.49999 c 0.0393,8.6e-4 0.0792,0.004 0.12011,0.0112 0.0654,0.01 0.13216,0.0277 0.20028,0.05 0.0409,0.014 0.082,0.0293 0.12347,0.047 1.65699,0.71056 3.7635,4.5884 -1.23366,2.25784 -0.21459,-1.78152 0.1996,-2.38269 0.78988,-2.36607 z m 8.88882,1.51862 c 0.57279,0.003 1.3455,0.12641 1.91538,0.28179 0.0949,0.0263 0.18444,0.0529 0.26635,0.0801 0.0819,0.0273 0.15615,0.0547 0.22117,0.0825 0.56329,0.24168 0.42376,0.48938 -1.6318,0.47634 l -1.13388,-0.14486 c -0.77965,-0.58348 -0.37365,-0.77926 0.36276,-0.77577 z m 0.49,1.78779 c 0.034,0.003 0.0689,0.008 0.10416,0.0165 0.0165,0.004 0.0335,0.01 0.05,0.0146 0.0168,0.004 0.033,0.014 0.05,0.0186 0.50404,0.19777 1.02002,0.95974 0.33655,2.0843 -1.35588,-1.54463 -1.04936,-2.1744 -0.54069,-2.13331 z m 14.3568,0.37176 2e-5,4.9e-4 c 0.7363,5.7e-4 1.41073,0.02 1.98577,0.0479 0.0438,-2.4e-4 0.0885,9.5e-4 0.13412,0.004 2.87566,0.17502 9.01299,5.32835 1.64882,5.20488 -4.19652,-3.81608 -11.09865,-0.31711 -14.51421,-0.21473 1.05591,1.68507 2.37833,4.65906 -1.28281,2.11887 -1.13982,-5.30376 4.72516,-6.77907 9.66981,-7.09099 0.82407,-0.0519 1.62221,-0.0717 2.35848,-0.0714 z m -4.45035,8.15938 c 0.0161,-0.001 0.0328,-4.2e-4 0.0501,0.003 l 4.9e-4,9.5e-4 c 0.29555,0.0406 0.72605,0.48727 -0.0987,0.51573 -0.17946,-0.37496 -0.0997,-0.50955 0.0414,-0.51808 10e-4,-1e-4 0.004,-1.8e-4 0.007,-0.001 z m -13.91579,0.31916 v 4.8e-4 c 0.0816,-4.5e-4 0.16283,0.003 0.244,0.007 1.13675,0.0785 2.21641,0.72964 2.71456,2.30996 -1.56394,0.3867 -2.20058,2.20547 -3.73938,2.36707 -4.90319,-1.23297 -2.2342,-4.48772 0.53636,-4.6759 0.0815,-0.004 0.16293,-0.008 0.24444,-0.008 z m 15.75243,1.32431 -1e-5,9.6e-4 c 0.0255,-8.4e-4 0.051,9.6e-4 0.0777,0.006 0.64446,0.089 1.66103,1.13806 -0.18425,1.07653 -0.36306,-0.77609 -0.21964,-1.05745 0.0619,-1.08086 0.0146,-0.001 0.0297,-0.003 0.0448,-0.004 z m 5.22782,0.0424 c 0.0213,2.4e-4 0.042,0.001 0.0631,0.004 v -9.3e-4 c 0.86974,0.10751 1.56528,2.85709 -1.06933,3.78527 -0.0557,-2.77478 0.47657,-3.74798 0.98479,-3.78719 0.007,-6e-4 0.0147,-6e-5 0.0213,-7e-4 z"
       inkscape:export-filename="D:\0-Ryan WJ\7400\2023\0-Panitia\.konreg-kasulampua\.output-logo-kasulampua\color-h-text-transp-w.png"
       inkscape:export-xdpi="300.069"
       inkscape:export-ydpi="300.069" />
    <path
       id="path1025"
       style="fill:#e85639;fill-opacity:1;stroke-width:1.6599;stroke-linecap:round"
       d="m -164.97121,105.20406 c -5.03053,0.001 -9.0789,4.05283 -9.07719,9.08335 l 0.007,22.24043 c 0.001,5.03051 4.05283,9.07937 9.08336,9.07768 l 22.24092,-0.007 c 2.41353,-8.7e-4 4.59919,-0.93573 6.22179,-2.46175 -0.41992,-1.36984 -2.09996,-2.2597 -0.73657,-3.72002 -2.79264,-1.11659 -4.35415,-5.10428 -2.26385,-6.05565 -2.26218,0.72484 -5.52526,-0.8774 -4.92395,-2.48222 -3.63088,1.00931 -8.68963,-0.96873 -12.12972,-2.37474 0.79474,-0.45124 -5.74522,-0.98045 -3.31447,-4.31351 -1.73422,0.53088 -3.12136,8.44219 -5.06823,3.37401 2.34767,-2.9528 -7.39451,-4.00257 -1.22045,-4.67578 1.781,-2.48772 6.73559,1.4275 6.24738,-2.93752 -3.19833,-0.92977 -8.32182,4.69981 -8.59804,-1.0998 -1.99153,-1.74108 -6.84982,0.59562 -4.03808,-2.74593 1.16397,-3.43192 6.36814,-4.03183 9.56729,-2.73697 6.40905,-2.51329 2.38277,7.31436 5.73693,8.02469 1.28705,6.52981 5.70307,0.90037 8.12086,-1.6736 2.95847,-4.93986 7.74348,-5.62165 12.44438,-2.56103 0.76131,0.72883 1.87067,0.89999 3.02562,0.94325 l -9.5e-4,-3.82766 c -0.001,-5.03051 -4.05284,-9.07888 -9.08337,-9.07719 z"
       inkscape:export-filename="D:\0-Ryan WJ\7400\2023\0-Panitia\.konreg-kasulampua\.output-logo-kasulampua\color-h-text-transp-w.png"
       inkscape:export-xdpi="300.069"
       inkscape:export-ydpi="300.069" />
    <path
       id="path13270"
       style="font-weight:normal;font-size:45.3659px;line-height:1.25;font-family:Jogjakartype;-inkscape-font-specification:Jogjakartype;text-align:start;text-anchor:start;fill:#ffffff;stroke-width:1.48851"
       d="m -110.88981,72.593897 c -1.10083,0 -2.12246,0.211785 -3.06379,0.635185 -0.89899,0.423401 -1.7083,0.995508 -2.42788,1.715289 -0.67725,0.719782 -1.22591,1.566196 -1.64656,2.540017 -0.3858,0.931481 -0.56972,1.926433 -0.55199,2.984935 l 0.21197,37.852107 c 1.0585,0 2.05808,-0.21179 2.99941,-0.63519 0.94132,-0.4234 1.75064,-0.99478 2.42788,-1.71456 0.71958,-0.71978 1.27235,-1.5456 1.65814,-2.47708 0.42811,-0.93148 0.62999,-1.94776 0.6048,-3.0486 l -0.0246,-7.68443 h 5.46201 c 0.97383,0 1.82076,0.35959 2.54074,1.07938 0.71993,0.71978 1.08092,1.56692 1.08372,2.54074 l -0.003,3.93771 c -0.0171,1.10084 0.18733,2.13771 0.61348,3.11154 0.41868,0.93148 0.98808,1.75729 1.708054,2.47708 0.71249,0.67743 1.530113,1.22822 2.451756,1.65162 0.963969,0.4234 1.996222,0.63519 3.09707,0.63519 h 4.127978 c 0.719781,0 1.310371,-0.25443 1.770995,-0.76251 0.502956,-0.50809 0.754024,-1.12212 0.753831,-1.8419 h -3.238865 c -0.981311,-0.0423 -1.828258,-0.40194 -2.540741,-1.07938 -0.670146,-0.67744 -0.985838,-1.50326 -0.946268,-2.47707 l -0.07162,-4.00138 c 0.0071,-1.39722 -0.344654,-2.66721 -1.054781,-3.81039 -0.675284,-1.18551 -1.563416,-2.13783 -2.664449,-2.85761 1.015955,-0.71979 1.828829,-1.630162 2.438732,-2.731002 0.644696,-1.143182 0.953005,-2.392564 0.925288,-3.747447 l -0.05426,-8.57355 c -1.058503,0 -2.058809,0.211783 -3.000124,0.635185 -0.94133,0.423402 -1.771231,0.994785 -2.490822,1.714565 -0.677244,0.719781 -1.226654,1.566201 -1.647284,2.540017 -0.3858,0.931481 -0.56973,1.927155 -0.55199,2.985659 l -0.0181,2.41269 c 0.003,0.973825 -0.33414,1.820959 -1.01138,2.540741 -0.68472,0.677436 -1.5141,1.016442 -2.48793,1.016442 h -5.20808 z m 119.5254725,0 c -1.0585036,0 -2.0580795,0.211785 -2.9994057,0.635185 -0.94133,0.423401 -1.7719609,0.995508 -2.4915448,1.715289 -0.677243,0.719782 -1.226641,1.566196 -1.6472866,2.540017 -0.3857869,0.931481 -0.56971102,1.926433 -0.55198719,2.984935 L 1.1407671,110.3194 c -0.017127,1.10084 0.1873244,2.13771 0.6134816,3.11154 0.418675,0.93148 0.9880786,1.75729 1.7080551,2.47708 0.7124943,0.67743 1.5293981,1.22822 2.4510337,1.65162 0.9639764,0.4234 1.9962257,0.63519 3.0970701,0.63519 H 15.86939 c 0.719784,0 1.310374,-0.25443 1.770994,-0.76251 0.502964,-0.50809 0.754028,-1.12212 0.753831,-1.8419 h -5.906206 c -0.973822,0 -1.817395,-0.33827 -2.5298894,-1.01571 -0.7199728,-0.71978 -1.0596407,-1.56693 -1.0200593,-2.54074 z M -22.663476,86.312591 c -1.058504,0 -2.058802,0.211783 -3.000128,0.635185 -0.941326,0.423402 -1.771239,0.994785 -2.490822,1.714565 -0.677243,0.719781 -1.226641,1.566201 -1.647287,2.540017 -0.385787,0.931481 -0.569711,1.927155 -0.551987,2.985659 l 0.120092,16.131383 c -0.01711,1.10084 0.187317,2.13771 0.613482,3.11154 0.418667,0.93148 0.988067,1.75729 1.708055,2.47708 0.754824,0.67743 1.593059,1.22822 2.514695,1.65162 0.96398,0.4234 1.996955,0.63519 3.097792,0.63519 h 8.446223 c 1.100844,0 1.949236,-0.23311 2.544357,-0.69885 0.637465,-0.46574 1.030667,-0.99521 1.17994,-1.58796 0.4037073,0.84679 0.995687,1.4395 1.7753356,1.77822 0.8219894,0.33873 1.6349966,0.50859 2.4394585,0.50859 h 4.4455704 c 0.71978015,0 1.33097268,-0.25443 1.83393317,-0.76251 0.50296419,-0.50809 0.73342953,-1.12212 0.69089233,-1.8419 h -3.1122641 c -1.0161589,0 -1.8837006,-0.3596 -2.6036771,-1.07938 -0.6775949,-0.71978 -1.0179814,-1.56691 -1.0207816,-2.54074 L -5.833244,86.312591 c -1.1008407,0 -2.1217408,0.211783 -3.063067,0.635185 -0.8989891,0.423402 -1.7083,0.994785 -2.427883,1.714565 -0.677247,0.719781 -1.226641,1.566201 -1.647287,2.540017 -0.385787,0.931481 -0.569711,1.927155 -0.551987,2.985659 l 0.07596,16.956833 c -0.0096,1.14318 -0.27141,2.18078 -0.784215,3.11226 -0.477951,0.88915 -1.394212,1.33331 -2.749095,1.33331 h -1.905554 c -0.973818,0 -1.816669,-0.33827 -2.529163,-1.01571 -0.719973,-0.71978 -1.060363,-1.56693 -1.020782,-2.54074 z m 159.029196,0 c -1.0585,0 -2.05808,0.211783 -2.9994,0.635185 -0.94133,0.423402 -1.77197,0.994785 -2.49155,1.714565 -0.67724,0.719781 -1.22664,1.566201 -1.64728,2.540017 -0.38579,0.931481 -0.56972,1.927155 -0.55199,2.985659 l 0.12009,16.131383 c -0.0171,1.10084 0.18805,2.13771 0.6142,3.11154 0.41868,0.93148 0.98736,1.75729 1.70734,2.47708 0.75483,0.67743 1.59306,1.22822 2.51469,1.65162 0.96398,0.4234 1.99695,0.63519 3.09779,0.63519 h 8.44623 c 1.10084,0 1.94923,-0.23311 2.54436,-0.69885 0.63746,-0.46574 1.03066,-0.99521 1.17994,-1.58796 0.4037,0.84679 0.99568,1.4395 1.77533,1.77822 0.82199,0.33873 1.63499,0.50859 2.43946,0.50859 h 4.44556 c 0.7198,0 1.33097,-0.25443 1.83394,-0.76251 0.50297,-0.50809 0.73344,-1.12212 0.69088,-1.8419 h -3.11225 c -1.01616,0 -1.88369,-0.3596 -2.60368,-1.07938 -0.67758,-0.71978 -1.01798,-1.56691 -1.0208,-2.54074 l -0.15264,-25.657709 c -1.10083,0 -2.12172,0.211783 -3.06305,0.635185 -0.89899,0.423402 -1.7083,0.994785 -2.42789,1.714565 -0.67724,0.719781 -1.22664,1.566201 -1.64728,2.540017 -0.38579,0.931481 -0.56972,1.927155 -0.55199,2.985659 l 0.076,16.956833 c -0.01,1.14318 -0.27141,2.18078 -0.78422,3.11226 -0.47795,0.88915 -1.3942,1.33331 -2.74909,1.33331 h -1.90483 c -0.97382,0 -1.81739,-0.33827 -2.52989,-1.01571 -0.71997,-0.71978 -1.06036,-1.56693 -1.02078,-2.54074 z m -215.657601,0.126603 c -1.100841,0 -2.121734,0.211783 -3.063071,0.635185 -0.941326,0.423402 -1.771961,0.995508 -2.491545,1.715289 -0.727058,0.677437 -1.301151,1.502528 -1.7218,2.476353 -0.378313,0.973816 -0.558144,1.990095 -0.540412,3.048599 l 0.09766,16.00478 c -0.01711,1.10084 0.187317,2.13771 0.613482,3.11154 0.418671,0.93148 0.988086,1.75729 1.708055,2.47708 0.712501,0.67743 1.550715,1.22822 2.514695,1.65162 0.963969,0.4234 1.996222,0.63519 3.09707,0.63519 h 8.446948 c 1.100848,0 1.948514,-0.23311 2.543635,-0.69885 0.637462,-0.46574 1.030664,-0.99521 1.179937,-1.58796 0.403711,0.84679 0.995694,1.4395 1.775335,1.77822 0.821997,0.33873 1.635,0.50859 2.439459,0.50859 h 4.44557 c 0.71978,0 1.331691,-0.25443 1.834659,-0.76251 0.502972,-0.50809 0.732726,-1.12212 0.690167,-1.8419 h -3.111539 c -1.016162,0 -1.884437,-0.3596 -2.604403,-1.07938 -0.677606,-0.71978 -1.017981,-1.56691 -1.020781,-2.54074 l -0.130223,-25.531106 z m 31.373652,0 c -2.752112,0 -4.741689,0.719923 -5.969149,2.159484 -1.234964,1.397218 -1.851894,3.175344 -1.851294,5.334686 l 0.06005,1.778229 c -0.0171,1.100838 0.187325,2.138436 0.613478,3.11226 0.418671,0.931484 0.988079,1.757297 1.708055,2.477077 0.71998,0.71978 1.540973,1.29116 2.462609,1.71457 0.956487,0.38105 1.984647,0.57152 3.085495,0.57152 h 3.620121 c 0.981308,0.0423 1.81102,0.42326 2.488652,1.14304 0.712546,0.67744 1.07016,1.50325 1.072868,2.47708 l 0.02749,4.82683 c 0.0027,0.97381 -0.338227,1.79963 -1.022952,2.47707 -0.642388,0.67741 -1.447076,1.03701 -2.413411,1.07938 h -10.733038 c 2.07e-4,0.71978 0.257275,1.33381 0.77047,1.8419 0.513206,0.50808 1.129347,0.76251 1.849127,0.76251 h 11.495548 c 1.058503,0 2.058075,-0.21179 2.999402,-0.63519 0.98367,-0.4234 1.838993,-0.97419 2.566062,-1.65162 0.719577,-0.71979 1.272345,-1.5456 1.658136,-2.47708 0.420638,-0.97383 0.618423,-2.0107 0.593224,-3.11154 l -0.0043,-1.46064 c -0.0177,-1.0585 -0.239418,-2.07478 -0.665568,-3.0486 -0.38382,-0.97382 -0.95322,-1.79963 -1.708055,-2.47707 -0.719976,-0.71978 -1.561568,-1.29116 -2.525548,-1.71457 -0.963972,-0.4234 -1.975627,-0.63518 -3.034131,-0.63518 h -3.620117 c -0.973826,0 -1.816676,-0.339 -2.529167,-1.016443 -0.677602,-0.71978 -1.017981,-1.56619 -1.020782,-2.540016 l -0.02749,-4.826827 c -0.0027,-0.973816 0.338227,-1.79963 1.022952,-2.477077 0.684733,-0.677408 1.510026,-1.037008 2.476355,-1.07938 h 9.399724 c -1.93e-4,-0.719781 -0.256542,-1.333812 -0.769744,-1.841892 -0.513203,-0.50808 -1.13007,-0.762511 -1.84985,-0.762511 z m 74.116249,0 c -1.100841,0 -2.121741,0.211783 -3.063067,0.635185 -0.94133,0.423402 -1.771961,0.995508 -2.491545,1.715289 -0.727069,0.677437 -1.300433,1.502528 -1.721078,2.476353 -0.378305,0.973816 -0.558858,1.990095 -0.541138,3.048599 l 0.09767,16.00478 c -0.01713,1.10084 0.187324,2.13771 0.613482,3.11154 0.418671,0.93148 0.988075,1.75729 1.708051,2.47708 0.712494,0.67743 1.550722,1.22822 2.514699,1.65162 0.963972,0.4234 1.996225,0.63519 3.09707,0.63519 h 8.446945 c 1.10084,0 1.949236,-0.23311 2.544357,-0.69885 0.637469,-0.46574 1.030667,-0.99521 1.17994,-1.58796 0.403707,0.84679 0.994965,1.4395 1.774613,1.77822 0.821986,0.33873 1.635719,0.50859 2.440181,0.50859 h 4.44557 c 0.71978,0 1.330973,-0.25443 1.833933,-0.76251 0.502965,-0.50809 0.73343,-1.12212 0.690893,-1.8419 H 46.65633 c -1.016163,0 -1.884427,-0.3596 -2.604403,-1.07938 -0.677595,-0.71978 -1.017259,-1.56691 -1.020056,-2.54074 L 42.901648,86.439194 Z m 24.705658,0 0.236566,31.882236 c 1.0585,0 2.058076,-0.21179 2.999406,-0.63519 0.941326,-0.4234 1.750637,-0.99478 2.42788,-1.71456 0.719587,-0.71978 1.272349,-1.5456 1.658139,-2.47708 0.428128,-0.93148 0.630009,-1.94776 0.6048,-3.0486 l -0.09983,-21.402403 h 5.46201 c 0.973822,0 1.820762,0.3596 2.540742,1.07938 0.712491,0.677447 1.048788,1.503261 1.009207,2.477077 l 0.164222,25.721376 c 1.0585,0 2.058798,-0.21179 3.000128,-0.63519 0.941326,-0.4234 1.749914,-0.99478 2.427157,-1.71456 0.719584,-0.71978 1.272349,-1.5456 1.658136,-2.47708 0.428128,-0.93148 0.65133,-1.94776 0.668465,-3.0486 L 75.554354,92.600054 c -0.0028,-0.973816 0.338223,-1.79963 1.022952,-2.477077 0.677243,-0.71978 1.503255,-1.07938 2.477077,-1.07938 h 1.904832 c 0.973818,0 1.820762,0.3596 2.540738,1.07938 0.712498,0.677447 1.070116,1.503261 1.072872,2.477077 l 0.07234,17.655686 c 0.0252,1.10084 0.250986,2.13843 0.677143,3.11226 0.418675,0.93148 0.988079,1.75657 1.708055,2.47635 0.719977,0.71978 1.540251,1.29189 2.461887,1.71529 0.963973,0.4234 1.996952,0.63519 3.097792,0.63519 h 4.064314 c 0.712298,-0.0423 1.32349,-0.29678 1.833937,-0.76251 0.50296,-0.50809 0.754746,-1.12212 0.754553,-1.8419 H 95.94032 c -0.973822,0 -1.799441,-0.3596 -2.477077,-1.07938 -0.677643,-0.71978 -1.018029,-1.56691 -1.020782,-2.54074 l -0.07234,-17.65568 c -0.01772,-1.058504 -0.239414,-2.074783 -0.665572,-3.048599 -0.426157,-0.973825 -0.99556,-1.798916 -1.708055,-2.476353 -0.719976,-0.719781 -1.561571,-1.291887 -2.525548,-1.715289 -0.963972,-0.423402 -1.975627,-0.635185 -3.034127,-0.635185 H 75.60934 c -1.481905,0 -2.816052,0.360323 -4.001379,1.080104 -1.185715,-0.719781 -2.519473,-1.080104 -4.001374,-1.080104 z m 48.585142,0 0.214138,31.755636 0.05064,8.19229 c 1.058502,0 2.058802,-0.21178 3.000132,-0.63519 0.94132,-0.4234 1.75064,-0.99478 2.42788,-1.71456 0.71958,-0.71978 1.27163,-1.54559 1.65741,-2.47707 0.42814,-0.93149 0.63001,-1.94777 0.6048,-3.0486 l 0.007,-0.31687 h 9.01847 c 1.0585,0 2.0588,-0.21179 3.00013,-0.63519 0.98366,-0.4234 1.81767,-0.97419 2.50239,-1.65162 0.71959,-0.71979 1.27235,-1.5456 1.65814,-2.47708 0.42065,-0.97383 0.61843,-2.0107 0.59322,-3.11154 l -0.0984,-16.00478 c -0.0504,-2.201686 -0.8161,-4.022451 -2.29839,-5.462013 -1.48978,-1.481895 -3.30447,-2.286391 -5.44393,-2.413413 z m 68.40031,0 c -1.10084,0 -2.12175,0.211783 -3.06306,0.635185 -0.94134,0.423402 -1.77197,0.995508 -2.49156,1.715289 -0.72706,0.677437 -1.30115,1.502528 -1.72178,2.476353 -0.37833,0.973816 -0.55817,1.990095 -0.54042,3.048599 l 0.0977,16.00478 c -0.0172,1.10084 0.18732,2.13771 0.61347,3.11154 0.41866,0.93148 0.98808,1.75729 1.70804,2.47708 0.71251,0.67743 1.55073,1.22822 2.51471,1.65162 0.96398,0.4234 1.99622,0.63519 3.09706,0.63519 h 8.44695 c 1.10084,0 1.94851,-0.23311 2.54364,-0.69885 0.63746,-0.46574 1.03139,-0.99521 1.18066,-1.58796 0.4037,0.84679 0.99498,1.4395 1.77461,1.77822 0.822,0.33873 1.635,0.50859 2.43948,0.50859 h 4.44629 c 0.71977,0 1.33097,-0.25443 1.83391,-0.76251 0.50297,-0.50809 0.73273,-1.12212 0.69017,-1.8419 h -3.11154 c -1.01617,0 -1.88443,-0.3596 -2.60439,-1.07938 -0.67761,-0.71978 -1.01798,-1.56691 -1.02079,-2.54074 l -0.13024,-25.531106 z m -243.735965,2.604403 h 5.462011 l 0.189543,22.990373 c 0.0028,0.97381 -0.356181,1.82096 -1.075764,2.54074 -0.684726,0.67744 -1.514105,1.01571 -2.487926,1.01571 h -1.904833 c -0.973825,0 -1.817398,-0.33827 -2.529889,-1.01571 -0.719957,-0.71978 -1.059629,-1.56693 -1.020059,-2.54074 l -0.185202,-19.370253 c 0.03958,-0.973825 0.398525,-1.820959 1.075765,-2.54074 0.677239,-0.71978 1.502529,-1.07938 2.476354,-1.07938 z m 105.489901,0 h 5.462011 l 0.189543,22.990373 c 0.0028,0.97381 -0.355454,1.82096 -1.075038,2.54074 -0.684729,0.67744 -1.514108,1.01571 -2.48793,1.01571 h -1.905554 c -0.973822,0 -1.816669,-0.33827 -2.529163,-1.01571 -0.719977,-0.71978 -1.060363,-1.56693 -1.020782,-2.54074 l -0.18448,-19.370253 c 0.03959,-0.973825 0.397796,-1.820959 1.075039,-2.54074 0.677247,-0.71978 1.502533,-1.07938 2.476354,-1.07938 z m 77.673434,0 h 5.39835 c 0.97382,0 1.82004,0.3596 2.54001,1.07938 0.71245,0.677447 1.07007,1.503261 1.07287,2.477077 l 0.19606,19.433916 c -0.0396,0.97381 -0.3978,1.82096 -1.07504,2.54074 -0.68473,0.67744 -1.51411,1.01571 -2.48793,1.01571 h -5.52568 z m 64.01768,0 h 5.46202 l 0.18953,22.990373 c 0.003,0.97381 -0.35618,1.82096 -1.07576,2.54074 -0.68473,0.67744 -1.5134,1.01571 -2.48719,1.01571 h -1.90558 c -0.97383,0 -1.81665,-0.33827 -2.52916,-1.01571 -0.71999,-0.71978 -1.06035,-1.56693 -1.02079,-2.54074 l -0.18447,-19.370253 c 0.0396,-0.973825 0.39778,-1.820959 1.07503,-2.54074 0.67724,-0.71978 1.50254,-1.07938 2.47637,-1.07938 z" />
    <path
       id="path13291"
       style="font-weight:500;font-size:11.3306px;line-height:1.25;font-family:Raleway;-inkscape-font-specification:'Raleway Medium';fill:#ffffff;fill-opacity:1;stroke-width:0.365425"
       d="m -100.01353,129.7714 v 9.77591 c 0,0.54051 0.150718,0.9617 0.452156,1.26314 0.311825,0.30144 0.732297,0.45215 1.262411,0.45215 0.239067,0 0.515073,-0.0317 0.826898,-0.094 0.311835,-0.0624 0.581593,-0.14013 0.810258,-0.23368 l -0.217756,-1.10687 c -0.135124,0.052 -0.281052,0.0988 -0.436959,0.14035 -0.155917,0.0312 -0.290793,0.0463 -0.405129,0.0463 -0.291041,0 -0.519514,-0.0825 -0.685829,-0.24886 -0.155918,-0.1767 -0.234395,-0.41622 -0.234395,-0.71766 v -9.27674 z m 4.427488,0 v 1.71529 h 1.372376 v -1.71529 z m 97.6962267,0 v 9.77591 c 0,0.54051 0.1507174,0.9617 0.4521522,1.26314 0.311832,0.30144 0.7330258,0.45215 1.2631369,0.45215 0.2390662,0 0.514343,-0.0317 0.826175,-0.094 0.311832,-0.0624 0.5823085,-0.14013 0.8109811,-0.23368 l -0.2184791,-1.10687 c -0.1351308,0.052 -0.2803218,0.0988 -0.4362396,0.14035 -0.1559068,0.0312 -0.2907894,0.0463 -0.4051294,0.0463 -0.2910413,0 -0.5202398,-0.0825 -0.6865475,-0.24886 -0.1559179,-0.1767 -0.2336731,-0.41622 -0.2336731,-0.71766 v -9.27674 z m 42.2376313,0 v 1.71529 h 1.371655 v -1.71529 z m 45.527138,0 v 9.77591 c 0,0.54051 0.150718,0.9617 0.452152,1.26314 0.311825,0.30144 0.733026,0.45215 1.263137,0.45215 0.239074,0 0.514343,-0.0317 0.826175,-0.094 0.311821,-0.0624 0.582301,-0.14013 0.810981,-0.23368 l -0.218479,-1.10687 c -0.13513,0.052 -0.281047,0.0988 -0.436962,0.14035 -0.155914,0.0312 -0.290796,0.0463 -0.405129,0.0463 -0.291045,0 -0.519518,-0.0825 -0.685825,-0.24886 -0.155918,-0.1767 -0.234399,-0.41622 -0.234399,-0.71766 v -9.27674 z m 13.798276,0 v 11.38196 h 1.37237 v -2.51035 l 1.55903,-1.4657 2.80624,3.97605 h 1.48162 l -3.39947,-4.75593 3.2432,-3.36763 h -1.512 l -4.17862,4.22564 v -7.48404 z m -116.717777,0.23367 c -0.571685,0 -1.1016,0.073 -1.590133,0.21848 -0.488537,0.13513 -0.909731,0.34297 -1.263137,0.62361 -0.353406,0.28066 -0.628683,0.62409 -0.826175,1.02946 -0.197489,0.40539 -0.295886,0.87266 -0.295886,1.40277 0,0.43655 0.07224,0.81095 0.217756,1.12278 0.145521,0.31184 0.358874,0.57679 0.639525,0.79507 0.291041,0.21827 0.6496,0.40547 1.075765,0.56139 0.42616,0.15592 0.91959,0.30112 1.48089,0.43624 0.509324,0.12474 0.96148,0.25001 1.35646,0.37474 0.405374,0.11433 0.74329,0.24922 1.013547,0.40513 0.270247,0.15592 0.473292,0.34312 0.608419,0.5614 0.14552,0.20788 0.217756,0.46732 0.217756,0.77915 0,0.5613 -0.21816,0.98249 -0.654718,1.26313 -0.436566,0.28066 -1.049747,0.42105 -1.839723,0.42105 -0.426161,0 -0.83632,-0.0413 -1.231304,-0.12443 -0.384594,-0.0936 -0.748665,-0.20779 -1.091677,-0.34292 -0.332612,-0.14553 -0.63405,-0.30728 -0.904308,-0.48398 -0.259853,-0.1767 -0.473214,-0.35286 -0.639525,-0.52956 l -0.669909,1.185 c 0.62366,0.50931 1.314612,0.89883 2.073392,1.16909 0.769177,0.25985 1.579888,0.38993 2.432225,0.38993 0.571692,0 1.101607,-0.0571 1.590133,-0.17145 0.488533,-0.12474 0.909727,-0.31194 1.263133,-0.5614 0.3638035,-0.25986 0.6493924,-0.58193 0.8572853,-0.96652 0.2078819,-0.39498 0.3118024,-0.85746 0.3118024,-1.38757 0,-0.49893 -0.088075,-0.92012 -0.2647796,-1.26313 -0.1663077,-0.34302 -0.4154229,-0.63413 -0.748042,-0.8732 -0.3222251,-0.23907 -0.7172581,-0.43659 -1.1850041,-0.5925 -0.457345,-0.16631 -0.97214,-0.31151 -1.543833,-0.43624 -0.498919,-0.11434 -0.930432,-0.22377 -1.294243,-0.32772 -0.3638,-0.10394 -0.670039,-0.22371 -0.919498,-0.35883 -0.239074,-0.14552 -0.415953,-0.31687 -0.530286,-0.51437 -0.11434,-0.19749 -0.171456,-0.4466 -0.171456,-0.74804 0,-0.56129 0.197518,-1.00312 0.592502,-1.32536 0.405385,-0.32222 1.039209,-0.48325 1.901936,-0.48325 0.332619,0 0.649903,0.0358 0.951331,0.10851 0.311832,0.0624 0.597421,0.15118 0.857285,0.26551 0.259853,0.10394 0.493856,0.22297 0.701741,0.3581 0.207893,0.13513 0.374449,0.27553 0.499175,0.42105 l 0.654719,-1.13798 c -0.4677461,-0.3846 -1.003184,-0.69083 -1.606049,-0.9195 -0.602874,-0.22868 -1.278705,-0.34364 -2.027092,-0.34364 z m -98.475383,0.0781 -5.70653,6.12758 v -6.11166 h -1.40349 v 11.05424 h 1.40349 v -3.38355 l 1.91785,-1.99599 4.02236,5.37954 h 1.52791 l -4.69299,-6.1898 4.4434,-4.88036 z m 179.394912,0 v 11.07016 h 1.403483 v -8.5598 l 3.695358,6.56382 h 0.795069 l 3.679441,-6.56382 v 8.5598 h 1.403483 V 130.0832 h -1.4657 l -4.022354,7.18743 -4.007164,-7.18743 z m 73.514338,0 v 11.07016 h 1.40277 v -3.97605 h 3.30542 c 0.48853,0 0.93037,-0.0984 1.32535,-0.29589 0.40538,-0.19749 0.74881,-0.46317 1.02946,-0.79579 0.29105,-0.33262 0.514,-0.71181 0.66991,-1.13798 0.15592,-0.42616 0.2344,-0.868 0.2344,-1.32535 0,-0.43655 -0.0833,-0.86255 -0.24959,-1.27833 -0.16631,-0.42616 -0.4003,-0.80536 -0.70174,-1.13798 -0.29105,-0.34302 -0.6448,-0.6135 -1.06057,-0.81098 -0.40538,-0.20789 -0.85201,-0.31181 -1.34055,-0.31181 z m -200.834203,0.21849 v 2.71291 h -1.106874 v 1.07577 h 1.106874 v 5.47214 c 0,0.58208 0.182398,1.0136 0.546202,1.29424 0.3638,0.27026 0.794594,0.40585 1.293517,0.40585 0.218283,0 0.426124,-0.0214 0.623612,-0.0629 0.207882,-0.0312 0.395077,-0.0724 0.561392,-0.12443 0.176701,-0.0624 0.332938,-0.11947 0.468069,-0.17146 0.135116,-0.0624 0.24384,-0.11473 0.327,-0.15626 l -0.327,-1.09095 c -0.08316,0.052 -0.239389,0.12421 -0.468069,0.21775 -0.218279,0.0832 -0.462601,0.12516 -0.732848,0.12516 -0.239077,0 -0.446911,-0.0674 -0.623612,-0.20257 -0.176683,-0.13513 -0.275077,-0.354 -0.29589,-0.65544 v -5.05109 h 1.823807 v -1.07577 h -1.823807 v -2.71291 z m 202.236973,1.02873 h 3.13396 c 0.27026,0 0.52489,0.0571 0.76396,0.17146 0.24947,0.11435 0.46282,0.27538 0.63952,0.48326 0.1871,0.20788 0.3323,0.4522 0.43624,0.73285 0.11434,0.28064 0.17146,0.58209 0.17146,0.90431 0,0.31183 -0.0468,0.60846 -0.14035,0.88911 -0.0935,0.28063 -0.2229,0.52976 -0.38921,0.74804 -0.16631,0.2079 -0.36935,0.37446 -0.60842,0.49918 -0.22868,0.11434 -0.48812,0.17146 -0.77915,0.17146 h -3.22801 z m -170.864046,1.28556 c -0.38292,0 -0.765707,0.14644 -1.059122,0.43986 l -1.742058,1.74206 c -0.586831,0.58683 -0.586824,1.53214 0,2.11897 l 1.742058,1.74206 c 0.586835,0.58684 1.531413,0.58684 2.118248,0 l 1.742054,-1.74206 c 0.586835,-0.58685 0.586835,-1.53214 0,-2.11897 l -1.742054,-1.74206 c -0.293412,-0.29342 -0.676202,-0.43986 -1.059126,-0.43986 z m 84.910055,0 c -0.38292,0 -0.765707,0.14644 -1.059122,0.43986 l -1.742059,1.74206 c -0.586834,0.58683 -0.586834,1.53214 0,2.11897 l 1.742059,1.74206 c 0.586834,0.58683 1.532135,0.58683 2.11897,0 l 1.742058,-1.74206 c 0.586835,-0.58683 0.586835,-1.53214 0,-2.11897 l -1.742058,-1.74206 c -0.293416,-0.29342 -0.676925,-0.43986 -1.059848,-0.43986 z m 72.896521,0 c -0.38292,1e-5 -0.76571,0.14644 -1.05912,0.43986 l -1.74206,1.74206 c -0.58683,0.58683 -0.58683,1.53212 0,2.11897 l 1.74206,1.74206 c 0.58683,0.58683 1.53142,0.58683 2.11824,0 l 1.74206,-1.74206 c 0.58683,-0.58683 0.58684,-1.53213 0,-2.11897 l -1.74206,-1.74206 c -0.29341,-0.29342 -0.67619,-0.43986 -1.05912,-0.43986 z m -235.37655,0.25828 c -1.06021,0 -2.11525,0.35302 -3.16508,1.05984 l 0.45216,0.88912 c 0.90429,-0.63406 1.76661,-0.95133 2.58776,-0.95133 0.68603,0 1.21594,0.19272 1.59013,0.57731 0.3742,0.3742 0.5614,0.89379 0.5614,1.55902 v 0.65472 c -0.31184,-0.12478 -0.67039,-0.22391 -1.07576,-0.29662 -0.40537,-0.0728 -0.80522,-0.10851 -1.2002,-0.10851 -0.49893,0 -0.96139,0.0619 -1.38757,0.18665 -0.41577,0.12474 -0.77984,0.29609 -1.09168,0.51437 -0.30143,0.21827 -0.53543,0.48323 -0.70174,0.79507 -0.16631,0.30143 -0.24959,0.63935 -0.24959,1.01354 0,0.3638 0.0682,0.70171 0.20329,1.01355 0.14553,0.30144 0.33752,0.5664 0.57658,0.79507 0.24947,0.22867 0.54059,0.41107 0.87321,0.5462 0.33261,0.12473 0.69117,0.18664 1.07576,0.18664 0.63405,0 1.2266,-0.12456 1.7775,-0.37402 0.5613,-0.25986 1.02378,-0.63425 1.38757,-1.12278 l 0.0311,0.5773 c 0.0312,0.22868 0.12479,0.4262 0.28069,0.59251 0.16632,0.1559 0.38447,0.23367 0.65472,0.23367 0.10395,0 0.20307,-0.006 0.29662,-0.0159 0.0935,-0.0104 0.21258,-0.0255 0.3581,-0.0463 v -1.185 c -0.29103,-0.0104 -0.43624,-0.17695 -0.43624,-0.49918 v -3.32061 c 0,-1.03944 -0.30143,-1.84535 -0.9043,-2.41703 -0.59247,-0.5717 -1.42382,-0.85728 -2.49444,-0.85728 z m 17.976892,0 c -0.665231,0 -1.263307,0.16583 -1.793422,0.49845 -0.530115,0.32222 -0.961643,0.78541 -1.294243,1.38829 v -1.7464 h -1.247221 v 8.13876 h 1.372376 v -4.91147 c 0.187099,-0.64443 0.504372,-1.15923 0.951331,-1.54383 0.446948,-0.39498 0.945908,-0.5925 1.496807,-0.5925 0.540512,0 0.945867,0.19752 1.216114,0.5925 0.270254,0.39499 0.405129,1.02954 0.405129,1.90266 v 4.55264 h 1.371651 v -4.89555 c 0.187098,-0.63405 0.499578,-1.14884 0.93614,-1.54383 0.446956,-0.40537 0.950712,-0.60842 1.512,-0.60842 0.540501,0 0.945857,0.20305 1.216111,0.60842 0.280655,0.40539 0.421045,1.0344 0.421045,1.88674 v 4.55264 h 1.372377 v -4.86444 c 0,-0.48852 -0.042,-0.94068 -0.125156,-1.35646 -0.08315,-0.41577 -0.218031,-0.77433 -0.405129,-1.07577 -0.187099,-0.31182 -0.441737,-0.55134 -0.763958,-0.71765 -0.311836,-0.17671 -0.702072,-0.26478 -1.169814,-0.26478 -1.340863,0 -2.374531,0.65999 -3.102134,1.98006 -0.09354,-0.58207 -0.343386,-1.05486 -0.748764,-1.41867 -0.394991,-0.3742 -0.935218,-0.56139 -1.62124,-0.56139 z m 13.112446,0 c -1.060233,0 -2.115251,0.35302 -3.165072,1.05984 l 0.452152,0.88912 c 0.904304,-0.63406 1.766616,-0.95133 2.587765,-0.95133 0.686032,0 1.216666,0.19272 1.590855,0.57731 0.374197,0.3742 0.56067,0.89379 0.56067,1.55902 v 0.65472 c -0.311836,-0.12478 -0.670395,-0.22391 -1.075765,-0.29662 -0.405377,-0.0728 -0.805214,-0.10851 -1.200194,-0.10851 -0.498923,0 -0.961395,0.0619 -1.387567,0.18665 -0.415767,0.12474 -0.779844,0.29609 -1.09168,0.51437 -0.301439,0.21827 -0.535438,0.48323 -0.701742,0.79507 -0.166315,0.30143 -0.249589,0.63935 -0.249589,1.01354 0,0.3638 0.06815,0.70171 0.203289,1.01355 0.14552,0.30144 0.337519,0.5664 0.576585,0.79507 0.249471,0.22867 0.540579,0.41107 0.873198,0.5462 0.332612,0.12473 0.69117,0.18664 1.075765,0.18664 0.634057,0 1.226615,-0.12456 1.777506,-0.37402 0.561295,-0.25986 1.023767,-0.63425 1.387566,-1.12278 l 0.03111,0.5773 c 0.03118,0.22868 0.124781,0.4262 0.280699,0.59251 0.166304,0.1559 0.384461,0.23367 0.654715,0.23367 0.103943,0 0.20306,-0.006 0.296616,-0.0159 0.09354,-0.0104 0.212582,-0.0255 0.358103,-0.0463 v -1.185 c -0.291041,-0.0104 -0.436236,-0.17695 -0.436236,-0.49918 v -3.32061 c 0,-1.03944 -0.301431,-1.84535 -0.904308,-2.41703 -0.592469,-0.5717 -1.423829,-0.85728 -2.494438,-0.85728 z m 10.22807,0 c -0.717206,0 -1.382714,0.17135 -1.995985,0.51436 -0.602866,0.34301 -1.065349,0.80069 -1.38757,1.37238 v -1.7464 h -1.247221 v 8.13876 h 1.371654 v -4.91147 c 0.09355,-0.31182 0.233947,-0.59742 0.421046,-0.85728 0.187098,-0.25986 0.405266,-0.48353 0.654718,-0.67063 0.249471,-0.18709 0.515147,-0.33302 0.795788,-0.43696 0.280644,-0.11434 0.560713,-0.17146 0.841369,-0.17146 0.5405,0 0.941059,0.19752 1.20092,0.5925 0.270254,0.39499 0.405129,1.02954 0.405129,1.90266 v 4.55264 h 1.372373 v -4.86444 c 0,-0.48852 -0.042,-0.94068 -0.125156,-1.35646 -0.07277,-0.41577 -0.202844,-0.77433 -0.389935,-1.07577 -0.187099,-0.31182 -0.436207,-0.55134 -0.748042,-0.71765 -0.311836,-0.17671 -0.701357,-0.26478 -1.169088,-0.26478 z m 13.018397,0 c -1.060219,0 -2.115251,0.35302 -3.165073,1.05984 l 0.452153,0.88912 c 0.9043,-0.63406 1.767334,-0.95133 2.588486,-0.95133 0.686026,0 1.21594,0.19272 1.590134,0.57731 0.374197,0.3742 0.561395,0.89379 0.561395,1.55902 v 0.65472 c -0.311832,-0.12478 -0.67039,-0.22391 -1.075764,-0.29662 -0.405385,-0.0728 -0.805936,-0.10851 -1.20092,-0.10851 -0.498927,0 -0.961402,0.0619 -1.387567,0.18665 -0.415775,0.12474 -0.77913,0.29609 -1.090955,0.51437 -0.301438,0.21827 -0.535437,0.48323 -0.701741,0.79507 -0.166315,0.30143 -0.24959,0.63935 -0.24959,1.01354 0,0.3638 0.06743,0.70171 0.202563,1.01355 0.145521,0.30144 0.338246,0.5664 0.577312,0.79507 0.24946,0.22867 0.540586,0.41107 0.873198,0.5462 0.332623,0.12473 0.691174,0.18664 1.075764,0.18664 0.634054,0 1.225882,-0.12456 1.77678,-0.37402 0.561303,-0.25986 1.024493,-0.63425 1.388293,-1.12278 l 0.03111,0.5773 c 0.03118,0.22868 0.124782,0.4262 0.2807,0.59251 0.166307,0.1559 0.384468,0.23367 0.654715,0.23367 0.10395,0 0.202348,-0.006 0.29589,-0.0159 0.09355,-0.0104 0.213308,-0.0255 0.358829,-0.0463 v -1.185 c -0.291042,-0.0104 -0.436236,-0.17695 -0.436236,-0.49918 v -3.32061 c 0,-1.03944 -0.301443,-1.84535 -0.904308,-2.41703 -0.59248,-0.5717 -1.424552,-0.85728 -2.495164,-0.85728 z m 10.228069,0 c -0.717205,0 -1.381992,0.17135 -1.995262,0.51436 -0.602866,0.34301 -1.065341,0.80069 -1.387567,1.37238 v -1.7464 h -1.247943 v 8.13876 h 1.372377 v -4.91147 c 0.09355,-0.31182 0.233947,-0.59742 0.421045,-0.85728 0.187095,-0.25986 0.405259,-0.48353 0.654719,-0.67063 0.249467,-0.18709 0.514424,-0.33302 0.795065,-0.43696 0.280651,-0.11434 0.56144,-0.17146 0.842091,-0.17146 0.540505,0 0.940341,0.19752 1.200194,0.5925 0.270258,0.39499 0.405852,1.02954 0.405852,1.90266 v 4.55264 h 1.371654 v -4.86444 c 0,-0.48852 -0.04132,-0.94068 -0.124433,-1.35646 -0.07277,-0.41577 -0.202841,-0.77433 -0.389936,-1.07577 -0.187098,-0.31182 -0.43621,-0.55134 -0.748042,-0.71765 -0.311832,-0.17671 -0.702075,-0.26478 -1.169814,-0.26478 z m 50.6570893,0 c -1.0602185,0 -2.1152476,0.35302 -3.1650726,1.05984 l 0.4521522,0.88912 c 0.9043043,-0.63406 1.7666122,-0.95133 2.5877646,-0.95133 0.6860255,0 1.2166625,0.19272 1.5908555,0.57731 0.374193,0.3742 0.560673,0.89379 0.560673,1.55902 v 0.65472 c -0.311832,-0.12478 -0.67039,-0.22391 -1.075764,-0.29662 -0.405378,-0.0728 -0.8052066,-0.10851 -1.200198,-0.10851 -0.4989268,0 -0.9614059,0.0619 -1.3875668,0.18665 -0.4157674,0.12474 -0.7798486,0.29609 -1.0916769,0.51437 -0.3014385,0.21827 -0.5354338,0.48323 -0.7017452,0.79507 -0.1663077,0.30143 -0.2495856,0.63935 -0.2495856,1.01354 0,0.3638 0.068158,0.70171 0.2032851,1.01355 0.1455243,0.30144 0.3375196,0.5664 0.5765857,0.79507 0.2494708,0.22867 0.5405824,0.41107 0.8732015,0.5462 0.332608,0.12473 0.6911665,0.18664 1.0757607,0.18664 0.6340464,0 1.2266002,-0.12456 1.7775055,-0.37402 0.561292,-0.25986 1.023767,-0.63425 1.387567,-1.12278 l 0.03111,0.5773 c 0.03118,0.22868 0.124782,0.4262 0.280696,0.59251 0.166308,0.1559 0.384461,0.23367 0.654719,0.23367 0.103935,0 0.203059,-0.006 0.296612,-0.0159 0.09355,-0.0104 0.212582,-0.0255 0.358107,-0.0463 v -1.185 c -0.291045,-0.0104 -0.43624,-0.17695 -0.43624,-0.49918 v -3.32061 c 0,-1.03944 -0.301439,-1.84535 -0.904304,-2.41703 -0.592473,-0.5717 -1.423819,-0.85728 -2.4944417,-0.85728 z m 21.4689647,0 c -0.61326,0 -1.174137,0.11423 -1.683457,0.34291 -0.509324,0.21828 -0.951157,0.51972 -1.325354,0.90431 -0.363799,0.38459 -0.649388,0.83122 -0.857281,1.34054 -0.197492,0.50932 -0.296612,1.05028 -0.296612,1.62196 0,0.5717 0.09912,1.11744 0.296612,1.63716 0.207893,0.50932 0.493482,0.95596 0.857281,1.34055 0.3638,0.38458 0.800114,0.69155 1.309438,0.92022 0.50932,0.21829 1.070919,0.32699 1.684179,0.32699 0.405377,0 0.794887,-0.0516 1.169087,-0.15554 0.374197,-0.10394 0.712113,-0.24434 1.013548,-0.42104 0.311824,-0.18711 0.582301,-0.40526 0.810985,-0.65472 0.239062,-0.24945 0.426264,-0.52474 0.561391,-0.82617 l -1.185004,-0.32772 c -0.08315,0.20788 -0.207711,0.39508 -0.374019,0.56139 -0.155918,0.1663 -0.338319,0.30671 -0.546201,0.42104 -0.207886,0.11431 -0.431558,0.2079 -0.670635,0.2807 -0.239066,0.0623 -0.482659,0.0933 -0.732126,0.0933 -0.353406,0 -0.691322,-0.0674 -1.013547,-0.20257 -0.311821,-0.13512 -0.592621,-0.32233 -0.842092,-0.56139 -0.249459,-0.23908 -0.4525,-0.52468 -0.608418,-0.85728 -0.155903,-0.33262 -0.249504,-0.70221 -0.280696,-1.1076 h 6.751191 c 0.01037,-0.052 0.01592,-0.12421 0.01592,-0.21776 0.01037,-0.0935 0.01519,-0.19746 0.01519,-0.3118 0,-0.54051 -0.0984,-1.06083 -0.29589,-1.55975 -0.187098,-0.50932 -0.457574,-0.95116 -0.810981,-1.32535 -0.353406,-0.38459 -0.784923,-0.69083 -1.294243,-0.9195 -0.498931,-0.22868 -1.055,-0.34291 -1.668266,-0.34291 z m 8.388347,0 c -0.436555,0 -0.846707,0.0571 -1.231301,0.17145 -0.374193,0.10395 -0.701801,0.26498 -0.982441,0.48326 -0.280652,0.20789 -0.504324,0.47285 -0.670632,0.79507 -0.155917,0.31183 -0.233673,0.67039 -0.233673,1.07576 0,0.32223 0.05159,0.59271 0.15554,0.81098 0.103936,0.21829 0.270495,0.40548 0.499175,0.5614 0.228673,0.15591 0.519792,0.29079 0.873202,0.40513 0.353402,0.11434 0.7746,0.2341 1.263133,0.35883 0.384587,0.0935 0.721781,0.18162 1.012825,0.26478 0.291034,0.0832 0.53056,0.17675 0.717658,0.28069 0.187106,0.10395 0.3275,0.22851 0.421046,0.37403 0.09355,0.13513 0.140346,0.30169 0.140346,0.49917 0,0.42617 -0.176879,0.75856 -0.530285,0.99763 -0.343013,0.22868 -0.811004,0.34292 -1.403483,0.34292 -0.530108,0 -1.033861,-0.0881 -1.512001,-0.26478 -0.478132,-0.1871 -0.956453,-0.46238 -1.434593,-0.82618 l -0.592502,0.9195 c 0.457346,0.3846 1.003102,0.68122 1.637156,0.88912 0.634058,0.19748 1.278213,0.29588 1.933046,0.29588 0.987464,0 1.772739,-0.22295 2.354818,-0.66991 0.582086,-0.44694 0.873198,-1.04982 0.873198,-1.80861 0,-0.34301 -0.06816,-0.63412 -0.203289,-0.8732 -0.124734,-0.23907 -0.322255,-0.44691 -0.592502,-0.62361 -0.259861,-0.1767 -0.592254,-0.32742 -0.997631,-0.45215 -0.394981,-0.13512 -0.862971,-0.2652 -1.403483,-0.38994 -0.343013,-0.0831 -0.638933,-0.16087 -0.888392,-0.23367 -0.239066,-0.0728 -0.436588,-0.15604 -0.592502,-0.24959 -0.155929,-0.0935 -0.270162,-0.20298 -0.342913,-0.32772 -0.06238,-0.12474 -0.09332,-0.28025 -0.09332,-0.46735 0,-0.46773 0.171356,-0.80565 0.514369,-1.01354 0.353406,-0.21828 0.7794,-0.32772 1.278327,-0.32772 0.446959,0 0.883273,0.0777 1.309437,0.23367 0.426161,0.14552 0.810881,0.3692 1.153894,0.67063 l 0.623609,-0.82617 c -0.3638,-0.32221 -0.810433,-0.58238 -1.340544,-0.77987 -0.530108,-0.1975 -1.102019,-0.29589 -1.715289,-0.29589 z m 44.810206,0 c -1.060219,0 -2.115248,0.35302 -3.165077,1.05984 l 0.452156,0.88912 c 0.904304,-0.63406 1.766609,-0.95133 2.587765,-0.95133 0.686025,0 1.216662,0.19272 1.590855,0.57731 0.374194,0.3742 0.56067,0.89379 0.56067,1.55902 v 0.65472 c -0.311832,-0.12478 -0.670387,-0.22391 -1.075765,-0.29662 -0.405373,-0.0728 -0.805202,-0.10851 -1.200194,-0.10851 -0.498919,0 -0.961398,0.0619 -1.38757,0.18665 -0.415768,0.12474 -0.779845,0.29609 -1.091677,0.51437 -0.301439,0.21827 -0.535434,0.48323 -0.701742,0.79507 -0.166311,0.30143 -0.248867,0.63935 -0.248867,1.01354 0,0.3638 0.06744,0.70171 0.202567,1.01355 0.145521,0.30144 0.337519,0.5664 0.576586,0.79507 0.249467,0.22867 0.540578,0.41107 0.873197,0.5462 0.332619,0.12473 0.691178,0.18664 1.075765,0.18664 0.634046,0 1.226596,-0.12456 1.777506,-0.37402 0.561288,-0.25986 1.023767,-0.63425 1.387566,-1.12278 l 0.03111,0.5773 c 0.03118,0.22868 0.124782,0.4262 0.280699,0.59251 0.166308,0.1559 0.384461,0.23367 0.654715,0.23367 0.103939,0 0.203063,-0.006 0.296616,-0.0159 0.09354,-0.0104 0.212583,-0.0255 0.358103,-0.0463 v -1.185 c -0.291041,-0.0104 -0.436236,-0.17695 -0.436236,-0.49918 v -3.32061 c 0,-1.03944 -0.301442,-1.84535 -0.904308,-2.41703 -0.592472,-0.5717 -1.423818,-0.85728 -2.494437,-0.85728 z m 69.584599,0 c -1.06023,0 -2.11526,0.35302 -3.16509,1.05984 l 0.45216,0.88912 c 0.9043,-0.63406 1.76661,-0.95133 2.58777,-0.95133 0.68602,0 1.21666,0.19272 1.59085,0.57731 0.37418,0.3742 0.56138,0.89379 0.56138,1.55902 v 0.65472 c -0.31181,-0.12478 -0.67039,-0.22391 -1.07576,-0.29662 -0.40537,-0.0728 -0.80593,-0.10851 -1.20093,-0.10851 -0.4989,0 -0.96138,0.0619 -1.38755,0.18665 -0.41577,0.12474 -0.77985,0.29609 -1.09168,0.51437 -0.30144,0.21827 -0.53471,0.48323 -0.70102,0.79507 -0.16631,0.30143 -0.24959,0.63935 -0.24959,1.01354 0,0.3638 0.0674,0.70171 0.20257,1.01355 0.14552,0.30144 0.33752,0.5664 0.57659,0.79507 0.24946,0.22867 0.54058,0.41107 0.87319,0.5462 0.33262,0.12473 0.69118,0.18664 1.07577,0.18664 0.63405,0 1.22658,-0.12456 1.77749,-0.37402 0.56131,-0.25986 1.02379,-0.63425 1.38757,-1.12278 l 0.0311,0.5773 c 0.0312,0.22868 0.12479,0.4262 0.28069,0.59251 0.16631,0.1559 0.38448,0.23367 0.65473,0.23367 0.10393,0 0.20305,-0.006 0.29662,-0.0159 0.0935,-0.0104 0.21331,-0.0255 0.35881,-0.0463 v -1.185 c -0.29103,-0.0104 -0.43693,-0.17695 -0.43693,-0.49918 v -3.32061 c 0,-1.03944 -0.30143,-1.84535 -0.9043,-2.41703 -0.5925,-0.5717 -1.42384,-0.85728 -2.49445,-0.85728 z m 9.77592,0 c -0.62368,0 -1.19559,0.15551 -1.7153,0.46734 -0.50934,0.30144 -0.92501,0.702 -1.24723,1.20092 v -1.52792 h -1.21611 v 11.45938 h 1.37239 v -4.92667 c 0.30143,0.50933 0.70676,0.93052 1.21611,1.26314 0.51971,0.33262 1.11706,0.49845 1.79268,0.49845 0.54053,0 1.03394,-0.1087 1.48091,-0.32699 0.44697,-0.22867 0.83167,-0.53011 1.15388,-0.90431 0.32222,-0.38458 0.57206,-0.83195 0.74878,-1.34127 0.17668,-0.51972 0.26476,-1.07027 0.26476,-1.65235 0,-0.5509 -0.0984,-1.08153 -0.29588,-1.59085 -0.18709,-0.50932 -0.45278,-0.95596 -0.79577,-1.34055 -0.34304,-0.39498 -0.74837,-0.70674 -1.21612,-0.93541 -0.46774,-0.22868 -0.98183,-0.34291 -1.5431,-0.34291 z m 17.94578,0 c -1.06024,0 -2.11527,0.35302 -3.1651,1.05984 l 0.45219,0.88912 c 0.9043,-0.63406 1.7666,-0.95133 2.58775,-0.95133 0.68603,0 1.21667,0.19272 1.59085,0.57731 0.37422,0.3742 0.56138,0.89379 0.56138,1.55902 v 0.65472 c -0.3118,-0.12478 -0.6711,-0.22391 -1.07647,-0.29662 -0.40537,-0.0728 -0.80522,-0.10851 -1.20022,-0.10851 -0.49889,0 -0.96138,0.0619 -1.38757,0.18665 -0.41574,0.12474 -0.77981,0.29609 -1.09165,0.51437 -0.30144,0.21827 -0.53546,0.48323 -0.70173,0.79507 -0.16631,0.30143 -0.24888,0.63935 -0.24888,1.01354 0,0.3638 0.0675,0.70171 0.20258,1.01355 0.14549,0.30144 0.33751,0.5664 0.57657,0.79507 0.24947,0.22867 0.54057,0.41107 0.87319,0.5462 0.33262,0.12473 0.69117,0.18664 1.07576,0.18664 0.63406,0 1.22663,-0.12456 1.7775,-0.37402 0.56131,-0.25986 1.0238,-0.63425 1.38757,-1.12278 l 0.0311,0.5773 c 0.0312,0.22868 0.12479,0.4262 0.2807,0.59251 0.16631,0.1559 0.38447,0.23367 0.65472,0.23367 0.10394,0 0.20306,-0.006 0.29662,-0.0159 0.0936,-0.0104 0.21332,-0.0255 0.35881,-0.0463 v -1.185 c -0.29103,-0.0104 -0.43693,-0.17695 -0.43693,-0.49918 v -3.32061 c 0,-1.03944 -0.30143,-1.84535 -0.90434,-2.41703 -0.59246,-0.5717 -1.42379,-0.85728 -2.49441,-0.85728 z m -277.138892,0.14034 v 8.13876 h 1.372376 v -8.13876 z m 88.2169215,0 v 4.87964 c 0,1.13297 0.2181531,1.9857 0.6547187,2.55738 0.4364322,0.57153 1.0817945,0.85712 1.9337682,0.85728 0.7065345,-1e-4 1.3559602,-0.16114 1.9482399,-0.48326 0.5924723,-0.33261 1.0707935,-0.8054 1.4345932,-1.41867 l 0.031106,0.95133 c 0.010394,0.23906 0.1039947,0.44138 0.2806959,0.60769 0.18709846,0.15592 0.41629335,0.23367 0.68655122,0.23367 0.0832002,0 0.16575579,-0.005 0.24886334,-0.0152 0.09354553,0 0.21883098,-0.0103 0.37474514,-0.0311 v -1.185 c -0.29103383,-0.0104 -0.4369582,-0.17695 -0.4369582,-0.49918 v -6.45458 h -1.3716542 v 5.09812 c -0.2390661,0.62366 -0.6086664,1.11782 -1.1075931,1.48162 -0.488537,0.3534 -1.0129291,0.52956 -1.5742171,0.52956 -1.1537751,0 -1.730483,-0.83136 -1.730483,-2.49444 v -4.61486 z m 21.3445305,0 3.461689,8.13876 h 1.137977 l 1.62124,-3.97605 1.63716,3.97605 h 1.138703 l 3.460963,-8.13876 h -1.325354 l -2.791054,6.7823 -1.37165,-3.38355 1.387567,-3.38355 h -1.137978 l -0.998357,2.60368 -0.997628,-2.60368 h -1.137981 l 1.402761,3.38355 -1.371654,3.38355 -2.806244,-6.7823 z m 30.372406,0 v 8.13876 h 1.371655 v -8.13876 z m 49.877215,0 v 4.87964 c 0,1.13297 0.218153,1.9857 0.654718,2.55738 0.436555,0.57169 1.08071,0.85728 1.933046,0.85728 0.706813,0 1.356479,-0.16103 1.948963,-0.48326 0.592472,-0.33261 1.070789,-0.8054 1.434592,-1.41867 l 0.0311,0.95133 c 0.0104,0.23906 0.10399,0.44138 0.28069,0.60769 0.1871,0.15592 0.41558,0.23367 0.68583,0.23367 0.0832,0 0.16648,-0.005 0.24959,-0.0152 0.0936,0 0.2181,-0.0103 0.37402,-0.0311 v -1.185 c -0.29104,-0.0104 -0.43624,-0.17695 -0.43624,-0.49918 v -6.45458 h -1.37165 v 5.09812 c -0.239077,0.62366 -0.608666,1.11782 -1.107596,1.48162 -0.488526,0.3534 -1.012915,0.52956 -1.574217,0.52956 -1.153761,0 -1.731206,-0.83136 -1.731206,-2.49444 v -4.61486 z m 17.774329,0 v 4.87964 c 0,1.13297 0.21816,1.9857 0.65472,2.55738 0.43656,0.57169 1.08071,0.85728 1.93304,0.85728 0.70682,0 1.35649,-0.16103 1.94897,-0.48326 0.59248,-0.33261 1.07079,-0.8054 1.43459,-1.41867 l 0.0311,0.95133 c 0.0104,0.23906 0.10399,0.44138 0.28069,0.60769 0.1871,0.15592 0.41557,0.23367 0.68583,0.23367 0.0831,0 0.16638,-0.005 0.24959,-0.0152 0.0935,0 0.2181,-0.0103 0.37402,-0.0311 v -1.185 c -0.29105,-0.0104 -0.43624,-0.17695 -0.43624,-0.49918 v -6.45458 h -1.37238 v 5.09812 c -0.23906,0.62366 -0.60794,1.11782 -1.10687,1.48162 -0.48853,0.3534 -1.01292,0.52956 -1.57421,0.52956 -1.15378,0 -1.73121,-0.83136 -1.73121,-2.49444 v -4.61486 z m 57.06465,0 v 4.87964 c 0,1.13297 0.21817,1.9857 0.65473,2.55738 0.43656,0.57169 1.08069,0.85728 1.93303,0.85728 0.7068,0 1.35649,-0.16103 1.94895,-0.48326 0.5925,-0.33261 1.0708,-0.8054 1.43461,-1.41867 l 0.0311,0.95133 c 0.0104,0.23906 0.10397,0.44138 0.28069,0.60769 0.18709,0.15592 0.41629,0.23367 0.68654,0.23367 0.0832,0 0.16576,-0.005 0.24888,-0.0152 0.0935,0 0.21879,-0.0103 0.37473,-0.0311 v -1.185 c -0.29106,-0.0104 -0.43696,-0.17695 -0.43696,-0.49918 v -6.45458 h -1.37164 v 5.09812 c -0.2391,0.62366 -0.60869,1.11782 -1.10762,1.48162 -0.48853,0.3534 -1.01291,0.52956 -1.57422,0.52956 -1.15374,0 -1.7312,-0.83136 -1.7312,-2.49444 v -4.61486 z m -138.016012,0.88839 c 0.363799,0 0.707238,0.0674 1.029463,0.20257 0.322226,0.12473 0.603026,0.30162 0.842088,0.53029 0.249471,0.22866 0.451782,0.50947 0.607696,0.84209 0.1663,0.32223 0.26542,0.67526 0.296612,1.05984 h -5.519886 c 0.03118,-0.38458 0.119981,-0.73761 0.265502,-1.05984 0.155917,-0.32223 0.353435,-0.59751 0.592502,-0.82618 0.249459,-0.23906 0.535059,-0.42147 0.857285,-0.5462 0.322225,-0.13513 0.664938,-0.20257 1.028738,-0.20257 z m 132.216152,0.15627 c 0.39496,0 0.75833,0.0833 1.09095,0.24959 0.343,0.15591 0.63965,0.37407 0.88912,0.65471 0.24947,0.27026 0.44697,0.59234 0.5925,0.96653 0.14553,0.3638 0.21776,0.74851 0.21776,1.15389 0,0.3846 -0.0619,0.75827 -0.18665,1.12207 -0.12475,0.3638 -0.30643,0.6914 -0.54549,0.98243 -0.22869,0.28065 -0.50946,0.50985 -0.84208,0.68656 -0.32225,0.1663 -0.68632,0.24886 -1.09169,0.24886 -0.28065,0 -0.55112,-0.0468 -0.81096,-0.14035 -0.25988,-0.10395 -0.5042,-0.23882 -0.73288,-0.40513 -0.22865,-0.17671 -0.43097,-0.37902 -0.60769,-0.60769 -0.17668,-0.23908 -0.32188,-0.49444 -0.43622,-0.76468 v -2.32298 c 0.052,-0.24947 0.16068,-0.48347 0.32699,-0.70175 0.17668,-0.22866 0.37974,-0.42067 0.60843,-0.57658 0.23905,-0.16632 0.48815,-0.29639 0.74803,-0.38994 0.27024,-0.10393 0.53041,-0.15554 0.77988,-0.15554 z m -268.95311,3.02472 c 0.71722,0 1.40816,0.13008 2.0734,0.38994 v 1.2002 c 0,0.20788 -0.0984,0.41093 -0.29589,0.60841 -0.21828,0.30144 -0.54036,0.54503 -0.96652,0.73213 -0.41578,0.1767 -0.86794,0.26551 -1.35647,0.26551 h -7.2e-4 c -0.24946,0 -0.48273,-0.0419 -0.70102,-0.12516 -0.21829,-0.0832 -0.411,-0.19739 -0.5773,-0.34291 -0.15592,-0.14552 -0.28048,-0.31689 -0.37403,-0.51437 -0.0831,-0.1975 -0.12443,-0.41014 -0.12443,-0.6388 0,-0.46776 0.21263,-0.84767 0.63881,-1.13871 0.43655,-0.29104 0.99815,-0.43624 1.68417,-0.43624 z m 31.089342,0 c 0.717206,0 1.408157,0.13008 2.073396,0.38994 v 1.2002 c 0,0.20788 -0.09839,0.41093 -0.29589,0.60841 -0.218272,0.30144 -0.540349,0.54503 -0.966521,0.73213 -0.415768,0.1767 -0.867924,0.26551 -1.35646,0.26551 -0.249464,0 -0.483463,-0.0419 -0.701742,-0.12516 -0.218283,-0.0832 -0.410997,-0.19739 -0.577312,-0.34291 -0.155918,-0.14552 -0.280477,-0.31689 -0.374019,-0.51437 -0.08316,-0.1975 -0.124433,-0.41014 -0.124433,-0.6388 0,-0.46776 0.212626,-0.84767 0.638802,-1.13871 0.436551,-0.29104 0.998146,-0.43624 1.684179,-0.43624 z m 23.247192,0 c 0.717206,0 1.408158,0.13008 2.073396,0.38994 v 1.2002 c 0,0.20788 -0.0984,0.41093 -0.29589,0.60841 -0.218279,0.30144 -0.541075,0.54503 -0.967247,0.73213 -0.415767,0.1767 -0.867923,0.26551 -1.35646,0.26551 -0.249467,0 -0.48274,-0.0419 -0.701016,-0.12516 -0.218279,-0.0832 -0.411,-0.19739 -0.577311,-0.34291 -0.155918,-0.14552 -0.280466,-0.31689 -0.374019,-0.51437 -0.08316,-0.1975 -0.12516,-0.41014 -0.12516,-0.6388 4e-6,-0.46776 0.213364,-0.84767 0.639529,-1.13871 0.436565,-0.29104 0.998153,-0.43624 1.684178,-0.43624 z m 60.8844365,0 c 0.7172055,0 1.4081575,0.13008 2.0733955,0.38994 v 1.2002 c 0,0.20788 -0.0984,0.41093 -0.29589,0.60841 -0.218279,0.30144 -0.540352,0.54503 -0.966524,0.73213 -0.4157678,0.1767 -0.8679274,0.26551 -1.3564607,0.26551 -0.2494596,0 -0.4834513,-0.0419 -0.7017415,-0.12516 -0.2182753,-0.0832 -0.4102742,-0.19739 -0.5765856,-0.34291 -0.1559142,-0.14552 -0.2811997,-0.31689 -0.3747452,-0.51437 -0.083204,-0.1975 -0.1244335,-0.41014 -0.1244335,-0.6388 0,-0.46776 0.2126304,-0.84767 0.6388024,-1.13871 0.4365582,-0.29104 0.9981574,-0.43624 1.6841826,-0.43624 z m 74.6675135,0 c 0.71721,0 1.408158,0.13008 2.073396,0.38994 v 1.2002 c 0,0.20788 -0.0984,0.41093 -0.29589,0.60841 -0.218279,0.30144 -0.540349,0.54503 -0.966521,0.73213 -0.415771,0.1767 -0.867927,0.26551 -1.35646,0.26551 -0.24946,0 -0.483455,-0.0419 -0.701742,-0.12516 -0.218279,-0.0832 -0.411,-0.19739 -0.577312,-0.34291 -0.155914,-0.14552 -0.280477,-0.31689 -0.374019,-0.51437 -0.08311,-0.1975 -0.124433,-0.41014 -0.124433,-0.6388 0,-0.46776 0.213352,-0.84767 0.639525,-1.13871 0.436558,-0.29104 0.997431,-0.43624 1.683456,-0.43624 z m 69.584586,0 c 0.71721,0 1.4089,0.13008 2.07411,0.38994 v 1.2002 c 0,0.20788 -0.0991,0.41093 -0.29662,0.60841 -0.21824,0.30144 -0.54034,0.54503 -0.96649,0.73213 -0.41578,0.1767 -0.86794,0.26551 -1.35646,0.26551 -0.24947,0 -0.48347,-0.0419 -0.70176,-0.12516 -0.21827,-0.0832 -0.41027,-0.19739 -0.57658,-0.34291 -0.15592,-0.14552 -0.2812,-0.31689 -0.37474,-0.51437 -0.0831,-0.1975 -0.12444,-0.41014 -0.12444,-0.6388 0,-0.46776 0.21335,-0.84767 0.63953,-1.13871 0.43655,-0.29104 0.99742,-0.43624 1.68345,-0.43624 z m 27.7217,0 c 0.71721,0 1.40887,0.13008 2.07411,0.38994 v 1.2002 c 0,0.20788 -0.0991,0.41093 -0.29662,0.60841 -0.21824,0.30144 -0.54034,0.54503 -0.96649,0.73213 -0.41578,0.1767 -0.86793,0.26551 -1.35646,0.26551 -0.24947,0 -0.48349,-0.0419 -0.70177,-0.12516 -0.21828,-0.0832 -0.41026,-0.19739 -0.57657,-0.34291 -0.1559,-0.14552 -0.28121,-0.31689 -0.37473,-0.51437 -0.0831,-0.1975 -0.12446,-0.41014 -0.12446,-0.6388 0,-0.46776 0.21339,-0.84767 0.63954,-1.13871 0.43656,-0.29104 0.99742,-0.43624 1.68345,-0.43624 z" />
  </g>
</svg>
