<?xml version="1.0" encoding="UTF-8" standalone="no"?>
<!-- Created with Inkscape (http://www.inkscape.org/) -->

<svg
   width="57.803246mm"
   height="31.592575mm"
   viewBox="0 0 57.803246 31.592575"
   version="1.1"
   id="svg5"
   inkscape:version="1.1.2 (b8e25be833, 2022-02-05)"
   sodipodi:docname="logobps.svg"
   xmlns:inkscape="http://www.inkscape.org/namespaces/inkscape"
   xmlns:sodipodi="http://sodipodi.sourceforge.net/DTD/sodipodi-0.dtd"
   xmlns="http://www.w3.org/2000/svg"
   xmlns:svg="http://www.w3.org/2000/svg">
  <sodipodi:namedview
     id="namedview7"
     pagecolor="#ffffff"
     bordercolor="#666666"
     borderopacity="1.0"
     inkscape:pageshadow="2"
     inkscape:pageopacity="0.0"
     inkscape:pagecheckerboard="0"
     inkscape:document-units="mm"
     showgrid="false"
     fit-margin-top="0"
     fit-margin-left="0"
     fit-margin-right="0"
     fit-margin-bottom="0"
     inkscape:zoom="2"
     inkscape:cx="113.75"
     inkscape:cy="162.5"
     inkscape:window-width="1920"
     inkscape:window-height="1009"
     inkscape:window-x="-8"
     inkscape:window-y="-8"
     inkscape:window-maximized="1"
     inkscape:current-layer="g284372" />
  <defs
     id="defs2" />
  <g
     inkscape:label="Layer 1"
     inkscape:groupmode="layer"
     id="layer1"
     transform="translate(219.06697,-329.73496)">
    <g
       id="g284374"
       transform="matrix(1.3497525,0,0,1.3497525,-921.46361,170.42139)">
      <g
         id="g284372">
        <g
           id="g284346"
           transform="matrix(1.3815462,0,0,1.3815462,-495.52096,-453.58202)"
           inkscape:export-filename="D:\0-Ryan WJ\7400\2022\3 - Humas\2022xxxx Thumbnail Rilis\20221107.png"
           inkscape:export-xdpi="180"
           inkscape:export-ydpi="180"
           style="fill:#000000">
          <g
             id="g284344"
             transform="matrix(0.80724217,0,0,0.80724217,976.65391,452.15298)"
             inkscape:export-filename="D:\0-Ryan WJ\7400\2022\9 - Regsosek\Testimoni HSN Regsosek\header.png"
             inkscape:export-xdpi="300"
             inkscape:export-ydpi="300"
             style="fill:#000000">
            <g
               style="fill:#000000;stroke-width:1.13337"
               transform="matrix(0.85913878,0,0,0.85913878,-292.31616,-287.33257)"
               id="g284342"
               inkscape:export-filename="D:\0-Ryan WJ\7400\2022\3 - Humas\Iklan Media\HUTRI4.png"
               inkscape:export-xdpi="300"
               inkscape:export-ydpi="300">
              <path
                 inkscape:export-ydpi="300"
                 inkscape:export-xdpi="300"
                 inkscape:connector-curvature="0"
                 style="fill:#0093dd;fill-opacity:1;fill-rule:evenodd;stroke:none;stroke-width:0.373621"
                 d="m -3.0383945,279.06871 c -0.2308,-3e-5 -0.3626,0.099 -0.42851,0.29678 l -1.18727,4.8164 c 0,0.19809 0.0662,0.29675 0.26401,0.29696 l 0.5769,-2e-5 c -2.70392,1.93736 -4.11886,4.23616 -3.44685,6.10322 1.05549,2.93608 6.89379003,3.72769 13.02865,1.74831 2.308791,-0.72575 4.3207605,-1.74826 5.9039605,-2.90287 -1.418291,0.89072 -3.0676805,1.6824 -4.9477115,2.27621 -6.03585897,1.94638 -11.807999,1.15477 -12.863449,-1.74829 -0.61345,-1.66886 0.4912,-3.68445 2.69833,-5.47656 h 2.54614003 c 0.19777,0 0.32994,0.0989 0.29672,0.32978 l -0.79166003,3.23326 c -0.16499,0.65977 -0.92358,1.02248 -1.64921,1.22042 -0.0661,0 -0.0989,0.16515 1e-5,0.16507 h 4.45276 c 0.23079,0 0.39589,-0.13168 0.49485,-0.36274 l 1.15435,-4.81693 c 0.033,-0.13176 -0.0662,-0.23042 -0.23094,-0.23063 h -3.66107997 c -0.13207,0 -0.23049003,-0.0332 -0.19757003,-0.19799 l 1.08797003,-4.48659 c 0.033,-0.1651 -0.0985,-0.26408 -0.23031,-0.26398 z"
                 id="path284336" />
              <path
                 inkscape:export-ydpi="300"
                 inkscape:export-xdpi="300"
                 inkscape:connector-curvature="0"
                 style="fill:#eb891b;fill-opacity:1;fill-rule:evenodd;stroke:none;stroke-width:0.373621"
                 d="m 5.3393855,279.06871 c -0.23079,-3e-5 -0.42843,0.13168 -0.49433,0.39568 l -0.17149,0.7103 c -1.06011,0.18246 -2.15458,0.44908 -3.25903,0.80748 -1.38529997,0.42889 -2.67138,0.98984 -3.7928,1.61666 0.85761,-0.42886 1.78117003,-0.79182 2.77065003,-1.08873 1.43189997,-0.46493 2.84561997,-0.78 4.18997997,-0.9565 l -0.89208,3.69419 c -0.033,0.16513 0.0662,0.23109 0.23095,0.23098 h 3.49648 c 0.26381,0 0.36272,0.19818 0.329739,0.39622 l -1.055589,4.32141 c -1.9e-5,0.16507 0.0989,0.23106 0.230931,0.23096 l 2.869408,-3e-5 c 0.2308025,0.0328 0.3631525,-0.0659 0.4290225,-0.29678 l 1.1873,-4.78343 c 0.0333,-0.19778 -0.0989,-0.32983 -0.29672,-0.32983 H 7.6488045 c -0.198128,0 -0.32984,-0.13251 -0.26403,-0.33031 l 0.758232,-3.23273 c 0.003,-0.0132 0.01029,-0.023 0.0131,-0.0333 2.8568705,0.19886 4.9851395,1.1952 5.5925595,2.87052 0.692671,1.88042 -0.725588,4.18975 -3.3972,6.13611 3.23232,-2.04531 5.01331,-4.61865 4.254741,-6.66404 -0.64593,-1.76188 -2.98767,-2.76905 -6.0809615,-2.87589 0.32671,-0.29704 0.794692,-0.50381 1.26551,-0.65365 0.0661,0 0.0662,-0.16512 -0.0332,-0.16505 z"
                 id="path284338" />
              <path
                 inkscape:export-ydpi="300"
                 inkscape:export-xdpi="300"
                 inkscape:connector-curvature="0"
                 style="fill:#68b92e;fill-opacity:1;fill-rule:evenodd;stroke:none;stroke-width:0.373621"
                 d="m -2.8072345,295.36548 h 2.86947003 c 0.16478,0 0.32984,-0.0662 0.36283,-0.26403 l 1.08842997,-4.48657 c 0.0659,-0.1651 0.16495,-0.19788 0.264,-0.19793 h 3.66112 c 0.19777,0 0.29678,-0.0659 0.3628,-0.23106 l 1.121441,-4.6845 c 0.0658,-0.29686 -0.0661,-0.39584 -0.29678,-0.39587 h -2.737561 c -0.26382,-0.0332 -0.42877,0.0659 -0.46174,0.32991 l -1.02247,4.18962 c -0.0988,0.23085 -0.26393,0.32991 -0.42882,0.32994 h -3.49617 c -0.19778,0 -0.36284,0.0989 -0.39583,0.29673 l -1.15439,4.8165 c -0.0659,0.1978 0.0328,0.29678 0.26402,0.29697 z"
                 id="path284340" />
            </g>
          </g>
        </g>
        <path
           id="path14134"
           style="font-style:italic;font-weight:bold;font-size:2.64509px;line-height:1.25;font-family:Arial;-inkscape-font-specification:'Arial Bold Italic';text-align:start;text-anchor:start;fill:#ffffff;stroke-width:0.0619944"
           d="m 535.31572,136.17273 c -0.2187,0 -0.38578,0.0527 -0.50116,0.15774 -0.11538,0.10504 -0.17305,0.23735 -0.17305,0.39664 0,0.0913 0.0195,0.17088 0.0582,0.23891 0.0387,0.068 0.0917,0.12347 0.15889,0.16654 0.068,0.0422 0.17523,0.0951 0.3216,0.15889 0.14722,0.0637 0.23718,0.10981 0.26992,0.13821 0.0465,0.0387 0.0697,0.086 0.0697,0.14204 0,0.0646 -0.0286,0.11979 -0.0854,0.16539 -0.0568,0.0456 -0.14899,0.0682 -0.27643,0.0682 -0.15329,0 -0.25829,-0.0335 -0.31509,-0.10069 -0.0351,-0.0413 -0.0552,-0.12094 -0.0605,-0.2389 l -0.37061,0.0195 c -0.003,0.12658 0.0191,0.23848 0.0682,0.33577 0.0491,0.0973 0.1331,0.17343 0.25192,0.22857 0.11969,0.0543 0.26109,0.0812 0.42383,0.0812 0.23592,0 0.41957,-0.0589 0.55131,-0.17688 0.1326,-0.11882 0.19909,-0.26176 0.19909,-0.4288 0,-0.13519 -0.0445,-0.24584 -0.13324,-0.33194 -0.0594,-0.0585 -0.19794,-0.13472 -0.41578,-0.22857 -0.14465,-0.0629 -0.23805,-0.11241 -0.28025,-0.14854 -0.0422,-0.0353 -0.0636,-0.0801 -0.0636,-0.13439 0,-0.0577 0.0229,-0.10532 0.0685,-0.14319 0.0465,-0.0379 0.12361,-0.0567 0.23124,-0.0567 0.10932,0 0.19209,0.0238 0.24809,0.072 0.056,0.0482 0.0885,0.11787 0.098,0.20827 l 0.37328,-0.0168 c -0.012,-0.17307 -0.0791,-0.31198 -0.20138,-0.41617 -0.12141,-0.10418 -0.29318,-0.15621 -0.51533,-0.15621 z m 5.82864,0 c -0.21871,0 -0.38579,0.0527 -0.50116,0.15774 -0.11538,0.10504 -0.17305,0.23735 -0.17305,0.39664 0,0.0913 0.0195,0.17088 0.0582,0.23891 0.0388,0.068 0.0917,0.12347 0.15889,0.16654 0.068,0.0422 0.17523,0.0951 0.3216,0.15889 0.14722,0.0637 0.23718,0.10981 0.26991,0.13821 0.0465,0.0387 0.0697,0.086 0.0697,0.14204 0,0.0646 -0.0286,0.11979 -0.0854,0.16539 -0.0568,0.0456 -0.14861,0.0682 -0.27604,0.0682 -0.1533,0 -0.25868,-0.0335 -0.31548,-0.10069 -0.0351,-0.0413 -0.0552,-0.12094 -0.0605,-0.2389 l -0.37061,0.0195 h -3.8e-4 c -0.003,0.12658 0.0195,0.23848 0.0685,0.33577 0.0491,0.0973 0.13309,0.17343 0.25192,0.22857 0.11968,0.0543 0.26109,0.0812 0.42383,0.0812 0.23592,0 0.41957,-0.0589 0.55131,-0.17688 0.13259,-0.11882 0.19909,-0.26176 0.19909,-0.4288 0,-0.13519 -0.0445,-0.24584 -0.13324,-0.33194 -0.0594,-0.0585 -0.19794,-0.13472 -0.41578,-0.22857 -0.14465,-0.0629 -0.23805,-0.11241 -0.28025,-0.14854 -0.0422,-0.0353 -0.0632,-0.0801 -0.0632,-0.13439 0,-0.0577 0.0225,-0.10532 0.0681,-0.14319 0.0465,-0.0379 0.12362,-0.0567 0.23125,-0.0567 0.10932,0 0.19209,0.0238 0.24809,0.072 0.056,0.0482 0.0889,0.11787 0.0984,0.20827 l 0.3729,-0.0168 c -0.0121,-0.17307 -0.0791,-0.31198 -0.20138,-0.41617 -0.1214,-0.10418 -0.29318,-0.15621 -0.51533,-0.15621 z m 7.24828,0 c -0.2187,0 -0.38578,0.0527 -0.50116,0.15774 -0.11538,0.10504 -0.17306,0.23735 -0.17306,0.39664 0,0.0913 0.0195,0.17088 0.0582,0.23891 0.0387,0.068 0.0917,0.12347 0.15889,0.16654 0.068,0.0422 0.17522,0.0951 0.3216,0.15889 0.14722,0.0637 0.23718,0.10981 0.26991,0.13821 0.0465,0.0387 0.0697,0.086 0.0697,0.14204 0,0.0646 -0.0286,0.11979 -0.0854,0.16539 -0.0568,0.0456 -0.149,0.0682 -0.27643,0.0682 -0.15328,0 -0.25829,-0.0335 -0.31509,-0.10069 -0.0351,-0.0413 -0.0552,-0.12094 -0.0605,-0.2389 l -0.37099,0.0195 c -0.003,0.12658 0.0195,0.23848 0.0685,0.33577 0.0491,0.0973 0.1331,0.17343 0.25192,0.22857 0.11969,0.0543 0.26071,0.0812 0.42344,0.0812 0.23593,0 0.41997,-0.0589 0.5517,-0.17688 0.1326,-0.11882 0.1987,-0.26176 0.1987,-0.4288 0,-0.13519 -0.0442,-0.24584 -0.13285,-0.33194 -0.0594,-0.0585 -0.19794,-0.13472 -0.41578,-0.22857 -0.14464,-0.0629 -0.23805,-0.11241 -0.28025,-0.14854 -0.0422,-0.0353 -0.0636,-0.0801 -0.0636,-0.13439 0,-0.0577 0.0229,-0.10532 0.0685,-0.14319 0.0465,-0.0379 0.12362,-0.0567 0.23125,-0.0567 0.10939,0 0.19216,0.0238 0.24809,0.072 0.056,0.0482 0.0885,0.11787 0.098,0.20827 l 0.37329,-0.0168 c -0.012,-0.17307 -0.0791,-0.31198 -0.20138,-0.41617 -0.12141,-0.10418 -0.29318,-0.15621 -0.51533,-0.15621 z m -27.60678,0.0325 -0.39665,1.89323 h 0.89245 c 0.19718,0 0.35267,-0.0222 0.46632,-0.067 0.11363,-0.0448 0.20263,-0.11816 0.26723,-0.21976 0.0646,-0.10246 0.0969,-0.21062 0.0969,-0.32428 0,-0.0861 -0.0276,-0.16284 -0.0827,-0.23086 -0.0542,-0.0689 -0.12974,-0.11691 -0.22703,-0.14358 0.12228,-0.0396 0.21253,-0.0976 0.27106,-0.1742 0.0585,-0.0775 0.0877,-0.1687 0.0877,-0.27374 0,-0.0783 -0.0165,-0.1498 -0.0501,-0.2144 -0.0336,-0.0646 -0.0828,-0.11633 -0.1474,-0.15506 -0.0646,-0.0387 -0.14324,-0.0648 -0.23622,-0.0777 -0.056,-0.009 -0.15408,-0.0126 -0.29442,-0.0126 z m 2.44876,0 -1.07086,1.89323 h 0.40047 l 0.22742,-0.41846 h 0.7504 l 0.0632,0.41846 h 0.36946 l -0.30744,-1.89323 z m 1.38059,0 -0.39664,1.89323 0.6677,-3.8e-4 c 0.1679,0 0.29235,-0.009 0.37329,-0.0283 0.14293,-0.0344 0.25952,-0.0881 0.34993,-0.16042 0.11796,-0.093 0.21578,-0.21802 0.29327,-0.37558 0.0784,-0.15844 0.11754,-0.33999 0.11754,-0.54405 0,-0.0947 -0.01,-0.1815 -0.0295,-0.26072 -0.0198,-0.0801 -0.0484,-0.15059 -0.0854,-0.21172 -0.0362,-0.0611 -0.0797,-0.11314 -0.13055,-0.15621 -0.0499,-0.0439 -0.1057,-0.0781 -0.1677,-0.10222 -0.0611,-0.0241 -0.13106,-0.0401 -0.20942,-0.0479 -0.0396,-0.004 -0.13053,-0.006 -0.27259,-0.006 z m 2.43957,0 -1.07047,1.89323 h 0.40047 l 0.22704,-0.41846 h 0.7504 l 0.0636,0.41846 h 0.36908 l -0.30744,-1.89323 z m 1.38327,0 -0.39511,1.89323 h 0.36295 l 0.26609,-1.27224 0.5115,1.27224 h 0.36295 l 0.39511,-1.89323 h -0.36181 l -0.26455,1.26688 -0.51265,-1.26688 z m 2.63483,0 -0.39664,1.89323 h 0.39014 l 0.15122,-0.72207 h 0.24924 c 0.1679,0 0.2823,-0.004 0.34343,-0.0126 0.10504,-0.0147 0.18877,-0.036 0.25077,-0.0636 0.062,-0.0284 0.11965,-0.0698 0.17305,-0.12404 0.0543,-0.0542 0.0997,-0.1263 0.13668,-0.2167 0.037,-0.0904 0.0555,-0.18353 0.0555,-0.27911 0,-0.10332 -0.0232,-0.19204 -0.0697,-0.26608 -0.0465,-0.0749 -0.10983,-0.12817 -0.1899,-0.16004 -0.0792,-0.0327 -0.18699,-0.049 -0.3239,-0.049 z m 1.76575,0 -0.20943,0.99696 c -0.0268,0.12917 -0.0418,0.20754 -0.0452,0.23508 -0.006,0.0414 -0.009,0.0796 -0.009,0.11485 0,0.16962 0.0586,0.30883 0.17573,0.41732 0.1171,0.10763 0.28572,0.16118 0.50614,0.16118 0.18427,0 0.33659,-0.036 0.45713,-0.10835 0.12057,-0.0723 0.21052,-0.16602 0.26992,-0.2814 0.0594,-0.11538 0.11214,-0.28217 0.15774,-0.50001 l 0.21555,-1.03563 h -0.3886 l -0.21709,1.03448 c -0.0344,0.16705 -0.0686,0.28517 -0.10222,0.35491 -0.0336,0.0697 -0.0809,0.1224 -0.14204,0.15774 -0.0611,0.0353 -0.13855,0.0528 -0.2324,0.0528 -0.10415,0 -0.18377,-0.0242 -0.2389,-0.0724 -0.0543,-0.0491 -0.0815,-0.11077 -0.0815,-0.18568 0,-0.0189 0.002,-0.0394 0.005,-0.0609 l 0.0528,-0.25307 0.2144,-1.02797 z m 4.21029,0 -1.07085,1.89323 h 0.40047 l 0.22742,-0.41846 h 0.7504 l 0.0632,0.41846 h 0.36946 l -0.30744,-1.89323 z m 1.05669,0 -0.0662,0.31624 h 0.55552 l -0.33079,1.57699 h 0.39014 l 0.32926,-1.57699 h 0.54787 l 0.0658,-0.31624 z m 4.11458,0 -0.0658,0.31624 h 0.55553 l -0.33079,1.57699 h 0.39013 l 0.32926,-1.57699 h 0.54749 l 0.0662,-0.31624 z m 2.07701,0 -1.07085,1.89323 h 0.40047 l 0.22741,-0.41846 h 0.75041 l 0.0632,0.41846 h 0.36946 l -0.30744,-1.89323 z m 1.05631,0 -0.0659,0.31624 h 0.55552 l -0.33079,1.57699 h 0.39014 l 0.32926,-1.57699 h 0.54748 l 0.0662,-0.31624 z m 1.72056,0 -0.39664,1.89323 h 0.39014 l 0.39511,-1.89323 z m 2.3944,0 -0.0659,0.31624 h 0.55514 l -0.3304,1.57699 h 0.39013 l 0.32926,-1.57699 h 0.54749 l 0.0659,-0.31624 z m 1.72019,0 -0.39626,1.89323 h 0.38975 l 0.39549,-1.89323 z m 0.74657,0 -0.39511,1.89323 h 0.39128 l 0.12137,-0.58003 0.36831,-0.3216 0.46747,0.90163 h 0.44029 l -0.62368,-1.15087 0.84956,-0.74236 h -0.52145 l -0.87598,0.80438 0.16807,-0.80438 z m -20.53806,0.31126 h 0.2791 c 0.1266,0 0.20775,0.007 0.24388,0.0207 0.037,0.0129 0.0656,0.0339 0.0854,0.0632 0.0207,0.0293 0.031,0.0666 0.031,0.11217 0,0.0681 -0.0201,0.1308 -0.0597,0.1876 -0.0396,0.0569 -0.0938,0.0979 -0.16271,0.12367 -0.0689,0.0258 -0.20617,0.0391 -0.41196,0.0391 h -0.11983 z m -6.45921,0.001 h 0.22627 c 0.11449,0 0.1941,0.008 0.2389,0.0234 0.0637,0.0224 0.11697,0.0675 0.16004,0.13554 0.0439,0.0672 0.0658,0.16775 0.0658,0.30207 0,0.15757 -0.0263,0.29457 -0.0789,0.41081 -0.0525,0.11624 -0.1171,0.20935 -0.19373,0.2791 -0.0534,0.0482 -0.11228,0.0815 -0.17688,0.0995 -0.0637,0.0172 -0.16718,0.0256 -0.31011,0.0256 h -0.19756 z m -3.82935,0.003 h 0.30207 c 0.1085,0 0.1772,0.003 0.2056,0.008 0.0508,0.0103 0.09,0.031 0.11753,0.062 0.0275,0.031 0.0414,0.0709 0.0414,0.11907 0,0.0491 -0.0148,0.0951 -0.044,0.13821 -0.0293,0.0431 -0.0732,0.0737 -0.1317,0.0926 -0.0585,0.0189 -0.15445,0.0287 -0.28791,0.0287 h -0.2971 z m 2.27571,0.0819 0.10988,0.76188 h -0.56702 z m 3.82054,0 0.1095,0.76188 h -0.56701 z m 9.99376,0 0.10988,0.76188 h -0.56701 z m 7.24828,0 0.10988,0.76188 h -0.56701 z m -23.50101,0.69603 h 0.46517 c 0.10852,0 0.18593,0.0207 0.2324,0.062 0.0465,0.0405 0.0697,0.0922 0.0697,0.15505 0,0.0517 -0.0163,0.10056 -0.049,0.14702 -0.0318,0.0465 -0.0751,0.08 -0.1294,0.10069 -0.0534,0.0198 -0.15868,0.0299 -0.31624,0.0299 h -0.37597 z m 4.30218,2.18 c -0.17479,0 -0.33056,0.0357 -0.46747,0.1072 -0.1369,0.0706 -0.25072,0.16717 -0.34112,0.28944 -0.0895,0.12227 -0.15631,0.26645 -0.20024,0.43263 -0.0336,0.12399 -0.0502,0.24183 -0.0502,0.35376 0,0.12054 0.0247,0.2403 0.0747,0.35912 0.0499,0.11796 0.13492,0.21703 0.2546,0.2971 0.11969,0.0801 0.26761,0.12022 0.44412,0.12022 0.20321,0 0.38533,-0.0505 0.54634,-0.15123 0.16101,-0.10075 0.28862,-0.24464 0.38248,-0.43148 0.0938,-0.18685 0.14089,-0.37989 0.14089,-0.57965 0,-0.24023 -0.0724,-0.43337 -0.21708,-0.57888 -0.14379,-0.14551 -0.33282,-0.21823 -0.56702,-0.21823 z m 6.22796,0 c -0.20873,0.003 -0.36871,0.056 -0.48048,0.15774 -0.11538,0.10504 -0.17306,0.23697 -0.17306,0.39626 0,0.0913 0.0191,0.17088 0.0578,0.2389 0.0387,0.068 0.0917,0.12386 0.15888,0.16693 0.068,0.0422 0.17523,0.0948 0.3216,0.1585 0.14723,0.0637 0.23718,0.10981 0.26992,0.13821 0.0465,0.0387 0.0697,0.086 0.0697,0.14204 0,0.0646 -0.0282,0.1198 -0.085,0.1654 -0.0568,0.0457 -0.14899,0.0685 -0.27642,0.0685 -0.15329,0 -0.25829,-0.0335 -0.31509,-0.10069 -0.0351,-0.0413 -0.0555,-0.12095 -0.0609,-0.23891 l -0.3706,0.0195 c -0.003,0.12642 0.0195,0.23819 0.0685,0.33538 0.0491,0.0973 0.1331,0.17382 0.25192,0.22895 0.11968,0.0543 0.26071,0.0812 0.42344,0.0812 0.23593,0 0.41996,-0.0589 0.5517,-0.17688 0.1326,-0.11882 0.1987,-0.26176 0.1987,-0.4288 0,-0.13518 -0.0442,-0.24584 -0.13285,-0.33194 -0.0594,-0.0585 -0.19832,-0.13472 -0.41617,-0.22857 -0.14464,-0.0629 -0.23805,-0.11241 -0.28025,-0.14855 -0.0422,-0.0353 -0.0632,-0.0801 -0.0632,-0.13438 0,-0.0577 0.0229,-0.10532 0.0685,-0.14319 0.0465,-0.0379 0.12362,-0.0571 0.23125,-0.0571 0.10938,0 0.19177,0.0242 0.24771,0.0724 0.056,0.0482 0.0889,0.11749 0.0984,0.2079 l 0.37329,-0.0169 c -0.0121,-0.17307 -0.0791,-0.3116 -0.20139,-0.41578 -0.1214,-0.10419 -0.29318,-0.15621 -0.51532,-0.15621 -0.007,0 -0.0139,-1e-4 -0.0207,0 z m 3.23439,0 c -0.20874,0.003 -0.36909,0.056 -0.48087,0.15774 -0.11538,0.10504 -0.17305,0.23697 -0.17305,0.39626 0,0.0913 0.0195,0.17088 0.0582,0.2389 0.0387,0.068 0.0913,0.12386 0.1585,0.16693 0.068,0.0422 0.17522,0.0948 0.3216,0.1585 0.14722,0.0637 0.23718,0.10981 0.26991,0.13821 0.0465,0.0387 0.0701,0.086 0.0701,0.14204 0,0.0646 -0.0286,0.1198 -0.0854,0.1654 -0.0568,0.0457 -0.14899,0.0685 -0.27642,0.0685 -0.1533,0 -0.2583,-0.0335 -0.3151,-0.10069 -0.0351,-0.0413 -0.0555,-0.12095 -0.0609,-0.23891 l -0.37022,0.0195 c -0.003,0.12642 0.0191,0.23819 0.0681,0.33538 0.0491,0.0973 0.13311,0.17382 0.25192,0.22895 0.11969,0.0543 0.26071,0.0812 0.42345,0.0812 0.23592,0 0.41996,-0.0589 0.5517,-0.17688 0.1326,-0.11882 0.1987,-0.26176 0.1987,-0.4288 0,-0.13518 -0.0442,-0.24584 -0.13285,-0.33194 -0.0594,-0.0585 -0.19795,-0.13472 -0.41579,-0.22857 -0.14464,-0.0629 -0.23805,-0.11241 -0.28025,-0.14855 -0.0422,-0.0353 -0.0635,-0.0801 -0.0635,-0.13438 0,-0.0577 0.0229,-0.10532 0.0685,-0.14319 0.0465,-0.0379 0.12361,-0.0571 0.23124,-0.0571 0.10938,0 0.19216,0.0242 0.2481,0.0724 0.056,0.0482 0.0885,0.11749 0.098,0.2079 l 0.37328,-0.0169 c -0.012,-0.17307 -0.0791,-0.3116 -0.20138,-0.41578 -0.12141,-0.10419 -0.29318,-0.15621 -0.51533,-0.15621 -0.007,0 -0.0136,-1e-4 -0.0203,0 z m 11.31501,0 c -0.20874,0.003 -0.3691,0.056 -0.48088,0.15774 -0.11538,0.10504 -0.17305,0.23697 -0.17305,0.39626 0,0.0913 0.0195,0.17088 0.0582,0.2389 0.0387,0.068 0.0917,0.12386 0.15888,0.16693 0.068,0.0422 0.17523,0.0948 0.3216,0.1585 0.14722,0.0637 0.23719,0.10981 0.26992,0.13821 0.0465,0.0387 0.0697,0.086 0.0697,0.14204 0,0.0646 -0.0282,0.1198 -0.085,0.1654 -0.0568,0.0457 -0.14898,0.0685 -0.27642,0.0685 -0.15329,0 -0.25829,-0.0335 -0.31509,-0.10069 -0.0351,-0.0413 -0.0555,-0.12095 -0.0609,-0.23891 l -0.3706,0.0195 c -0.003,0.12642 0.0195,0.23819 0.0685,0.33538 0.0491,0.0973 0.1331,0.17382 0.25192,0.22895 0.11969,0.0543 0.26071,0.0812 0.42344,0.0812 0.23592,0 0.41996,-0.0589 0.5517,-0.17688 0.1326,-0.11882 0.1987,-0.26176 0.1987,-0.4288 0,-0.13518 -0.0442,-0.24584 -0.13285,-0.33194 -0.0594,-0.0585 -0.19794,-0.13472 -0.41578,-0.22857 -0.14465,-0.0629 -0.23806,-0.11241 -0.28026,-0.14855 -0.0422,-0.0353 -0.0635,-0.0801 -0.0635,-0.13438 0,-0.0577 0.0229,-0.10532 0.0685,-0.14319 0.0465,-0.0379 0.12362,-0.0571 0.23125,-0.0571 0.10932,0 0.19171,0.0242 0.24771,0.0724 0.0559,0.0482 0.0889,0.11749 0.0984,0.2079 l 0.37329,-0.0169 c -0.012,-0.17307 -0.0795,-0.3116 -0.20177,-0.41578 -0.1214,-0.10419 -0.29318,-0.15621 -0.51532,-0.15621 -0.007,0 -0.0136,-1e-4 -0.0203,0 z m 8.76171,0 c -0.2187,0 -0.40896,0.0561 -0.57084,0.16807 -0.16187,0.11194 -0.28699,0.26963 -0.37482,0.47284 -0.0732,0.16876 -0.10949,0.34523 -0.10949,0.52949 0,0.27467 0.0853,0.48438 0.25575,0.62904 0.12484,0.1059 0.30409,0.1585 0.53829,0.1585 0.15068,0 0.29832,-0.0222 0.44297,-0.067 0.14552,-0.0447 0.26843,-0.0993 0.36831,-0.16387 l 0.17037,-0.81242 h -0.84726 l -0.0659,0.31624 h 0.48316 l -0.0582,0.28178 c -0.0637,0.0327 -0.13959,0.0609 -0.22742,0.085 -0.0878,0.0233 -0.17338,0.0348 -0.2569,0.0348 -0.13949,0 -0.24544,-0.0379 -0.31777,-0.11371 -0.0723,-0.0766 -0.10835,-0.19447 -0.10835,-0.35376 0,-0.16188 0.0294,-0.31105 0.0888,-0.44795 0.0594,-0.13688 0.1419,-0.23814 0.24695,-0.3036 0.10504,-0.0655 0.2204,-0.0984 0.3461,-0.0984 0.10763,0 0.19663,0.0273 0.26724,0.0816 0.0715,0.0542 0.12319,0.13482 0.15505,0.24159 l 0.36295,-0.0414 c -0.043,-0.1946 -0.1308,-0.3429 -0.2634,-0.4445 -0.13174,-0.1016 -0.30697,-0.15238 -0.52567,-0.15238 z m 2.05748,0 c -0.2187,0 -0.40896,0.0561 -0.57084,0.16807 -0.16187,0.11194 -0.28699,0.26963 -0.37481,0.47284 -0.0732,0.16876 -0.10989,0.34523 -0.10989,0.52949 0,0.27467 0.0853,0.48438 0.25575,0.62904 0.12485,0.1059 0.30449,0.1585 0.53868,0.1585 0.15069,0 0.29832,-0.0222 0.44297,-0.067 0.14552,-0.0447 0.26843,-0.0993 0.36831,-0.16387 l 0.17038,-0.81242 h -0.84727 l -0.0658,0.31624 h 0.48317 l -0.0582,0.28178 c -0.0637,0.0327 -0.13959,0.0609 -0.22742,0.085 -0.0878,0.0233 -0.17338,0.0348 -0.2569,0.0348 -0.13948,0 -0.24544,-0.0379 -0.31777,-0.11371 -0.0723,-0.0766 -0.10835,-0.19447 -0.10835,-0.35376 0,-0.16188 0.0294,-0.31105 0.0888,-0.44795 0.0594,-0.13688 0.1419,-0.23814 0.24694,-0.3036 0.10505,-0.0655 0.22039,-0.0984 0.3461,-0.0984 0.10763,0 0.19663,0.0273 0.26724,0.0816 0.0715,0.0542 0.12319,0.13482 0.15506,0.24159 l 0.36295,-0.0414 c -0.0431,-0.1946 -0.13081,-0.3429 -0.26341,-0.4445 -0.13173,-0.1016 -0.30696,-0.15238 -0.52567,-0.15238 z m -19.78651,0.0322 -0.21708,1.03448 c -0.0344,0.16704 -0.0682,0.28556 -0.10184,0.3553 -0.0336,0.0697 -0.0809,0.1224 -0.14204,0.15773 -0.0611,0.0353 -0.13893,0.0528 -0.23278,0.0528 -0.10416,0 -0.18377,-0.0242 -0.2389,-0.0724 -0.0543,-0.0491 -0.0812,-0.11078 -0.0812,-0.18569 0,-0.0189 0.002,-0.0393 0.005,-0.0609 l 0.0528,-0.25307 0.2144,-1.02798 h -0.3886 l -0.20904,0.99697 c -0.0268,0.12917 -0.0418,0.20754 -0.0452,0.23507 -0.006,0.0413 -0.009,0.0795 -0.009,0.11486 0,0.16963 0.0586,0.30845 0.17573,0.41693 0.1171,0.10764 0.28571,0.16157 0.50614,0.16157 0.18426,0 0.33659,-0.036 0.45713,-0.10835 0.12056,-0.0723 0.21052,-0.1664 0.26992,-0.28178 0.0594,-0.11538 0.11207,-0.28179 0.15773,-0.49963 l 0.21555,-1.03602 z m -16.27111,3.8e-4 -0.39664,1.89324 h 0.39014 l 0.15123,-0.72207 h 0.24924 c 0.1679,0 0.28229,-0.004 0.34342,-0.0126 0.10504,-0.0147 0.18877,-0.036 0.25077,-0.0636 0.062,-0.0284 0.11965,-0.0698 0.17305,-0.12405 0.0543,-0.0542 0.0997,-0.12629 0.13669,-0.2167 0.037,-0.0904 0.0555,-0.18353 0.0555,-0.2791 0,-0.10333 -0.0232,-0.19204 -0.0697,-0.26609 -0.0465,-0.0749 -0.10983,-0.12816 -0.1899,-0.16003 -0.0792,-0.0327 -0.18699,-0.049 -0.3239,-0.049 z m 1.77341,0 -0.39665,1.89324 h 0.39014 l 0.16386,-0.7841 h 0.15889 c 0.0922,0 0.15672,0.0125 0.19372,0.0375 0.0603,0.0422 0.11736,0.12468 0.17076,0.24695 0.0981,0.22644 0.16395,0.39286 0.19755,0.49963 h 0.41847 c -0.10677,-0.27037 -0.20363,-0.47941 -0.29059,-0.62751 -0.0439,-0.0732 -0.091,-0.13246 -0.14089,-0.17726 0.19545,-0.025 0.34155,-0.0895 0.43799,-0.19373 0.0964,-0.10504 0.14433,-0.23792 0.14433,-0.39894 0,-0.11279 -0.0247,-0.20869 -0.0746,-0.2879 -0.0491,-0.0792 -0.11433,-0.13345 -0.19526,-0.16272 -0.0801,-0.0301 -0.19226,-0.0452 -0.33692,-0.0452 z m 3.75431,0 0.33998,1.89324 h 0.41578 l 1.04367,-1.89324 h -0.3863 l -0.7841,1.43228 -0.24005,-1.43228 z m 1.95296,0 -0.39664,1.89324 h 0.39013 l 0.39511,-1.89324 z m 0.76074,0 -0.39511,1.89324 h 0.36295 l 0.26608,-1.27224 0.51112,1.27224 h 0.36295 l 0.39549,-1.89324 h -0.3618 l -0.26455,1.26688 -0.51303,-1.26688 z m 3.64864,0 -0.39664,1.89324 h 0.39013 l 0.39511,-1.89324 z m 5.17127,0 -0.39664,1.89324 h 1.35379 l 0.0658,-0.31624 h -0.96365 l 0.32964,-1.577 z m 2.14133,0 -1.07047,1.89324 h 0.40008 l 0.22742,-0.41847 h 0.7504 l 0.0632,0.41847 h 0.36945 l -0.30743,-1.89324 z m 1.03333,0 0.0712,1.89324 h 0.40161 l 0.68953,-1.38442 0.0425,1.38442 h 0.39396 l 0.9158,-1.89324 h -0.37712 l -0.62367,1.31091 -0.044,-1.31091 h -0.4223 l -0.64971,1.32508 -0.0168,-1.32508 z m 2.69035,0 -0.39511,1.89324 h 1.4786 l 0.067,-0.31624 h -1.10148 l 0.11868,-0.51418 h 0.98051 l 0.0658,-0.31663 h -0.9805 l 0.0907,-0.42995 h 1.01381 l 0.0659,-0.31624 z m 3.51311,0 -0.39664,1.89324 h 0.39013 l 0.39511,-1.89324 z m 1.36489,0 -0.0658,0.31624 h 0.55553 l -0.33079,1.577 h 0.39013 l 0.32926,-1.577 h 0.54787 l 0.0659,-0.31624 z m 1.73588,0 -0.39511,1.89324 h 1.4786 l 0.0674,-0.31624 h -1.10187 l 0.11907,-0.51418 h 0.98012 l 0.0659,-0.31663 h -0.98012 l 0.0904,-0.42995 h 1.01381 l 0.0659,-0.31624 z m 1.77455,0 -0.39511,1.89324 h 0.36295 l 0.26609,-1.27224 0.5115,1.27224 h 0.36295 l 0.39511,-1.89324 h -0.3618 l -0.26456,1.26688 -0.51264,-1.26688 z m 6.55224,0 -1.07085,1.89324 h 0.40047 l 0.22742,-0.41847 h 0.7504 l 0.0632,0.41847 h 0.36946 l -0.30744,-1.89324 z m 1.38174,0 -0.39626,1.89324 h 0.38975 l 0.16425,-0.7841 h 0.15889 c 0.0921,0 0.15672,0.0125 0.19372,0.0375 0.0602,0.0422 0.11697,0.12468 0.17037,0.24695 0.0981,0.22644 0.16396,0.39286 0.19756,0.49963 h 0.41846 c -0.10676,-0.27037 -0.20362,-0.47941 -0.29059,-0.62751 -0.0439,-0.0732 -0.091,-0.13246 -0.14089,-0.17726 0.19546,-0.025 0.34156,-0.0895 0.43799,-0.19373 0.0964,-0.10504 0.14472,-0.23792 0.14472,-0.39894 0,-0.11279 -0.0251,-0.20869 -0.075,-0.2879 -0.0491,-0.0792 -0.11394,-0.13345 -0.19487,-0.16272 -0.0801,-0.0301 -0.19265,-0.0452 -0.3373,-0.0452 z m 2.43843,0 -1.07047,1.89324 h 0.40047 l 0.22703,-0.41847 h 0.7504 l 0.0636,0.41847 h 0.36907 l -0.30743,-1.89324 z m -37.27473,0.29289 c 0.006,-1.7e-4 0.0117,0 0.0176,0 0.12399,0 0.22583,0.0426 0.30591,0.12787 0.0801,0.0844 0.12021,0.20098 0.12021,0.34994 0,0.13346 -0.0316,0.27074 -0.0953,0.41195 -0.0629,0.14035 -0.14314,0.24536 -0.24043,0.3151 -0.0964,0.0689 -0.19703,0.10337 -0.30208,0.10337 -0.12915,0 -0.23358,-0.0439 -0.3128,-0.13171 -0.0792,-0.0878 -0.11868,-0.19694 -0.11868,-0.32696 0,-0.21181 0.0596,-0.4061 0.17841,-0.58347 0.11595,-0.17183 0.26498,-0.26072 0.44718,-0.26609 z m -4.08816,0.0184 h 0.2791 c 0.1266,0 0.20775,0.007 0.24388,0.0207 0.037,0.0129 0.0656,0.0339 0.0854,0.0632 0.0207,0.0293 0.031,0.0665 0.031,0.11218 0,0.068 -0.0201,0.1308 -0.0597,0.1876 -0.0396,0.0569 -0.0938,0.0979 -0.16271,0.12366 -0.0689,0.0258 -0.20617,0.0391 -0.41196,0.0391 h -0.11983 z m 1.77187,0.005 h 0.4288 c 0.11449,0 0.18912,0.0104 0.22359,0.031 0.0559,0.0344 0.0838,0.0862 0.0838,0.15505 0,0.0585 -0.0195,0.1143 -0.0582,0.1677 -0.0387,0.0534 -0.0923,0.0926 -0.16119,0.11753 -0.068,0.025 -0.20693,0.0375 -0.41616,0.0375 h -0.20636 z m 37.47534,0 h 0.4288 c 0.1145,0 0.18913,0.0104 0.22359,0.031 0.056,0.0344 0.0842,0.0862 0.0842,0.15505 0,0.0585 -0.0195,0.1143 -0.0582,0.1677 -0.0387,0.0534 -0.0927,0.0926 -0.16157,0.11753 -0.068,0.025 -0.20655,0.0375 -0.41578,0.0375 h -0.20675 z m -20.21876,0.0815 0.1095,0.76189 h -0.56702 z m 18.66397,0 0.10988,0.76189 h -0.56701 z m 3.82055,0 0.1095,0.76189 h -0.56702 z" />
      </g>
    </g>
  </g>
</svg>
